<svg width="570" height="532" viewBox="0 0 570 532" fill="none" xmlns="http://www.w3.org/2000/svg">
<g clip-path="url(#clip0_157_939)">
<path d="M347.86 117.7H163.41C162.813 117.7 162.241 117.937 161.819 118.359C161.397 118.781 161.16 119.353 161.16 119.95C161.16 120.547 161.397 121.119 161.819 121.541C162.241 121.963 162.813 122.2 163.41 122.2H347.86C348.457 122.2 349.029 121.963 349.451 121.541C349.873 121.119 350.11 120.547 350.11 119.95C350.11 119.353 349.873 118.781 349.451 118.359C349.029 117.937 348.457 117.7 347.86 117.7Z" fill="#7DA2AB"/>
<path d="M347.86 202.11H163.41C162.813 202.11 162.241 202.347 161.819 202.769C161.397 203.191 161.16 203.763 161.16 204.36C161.16 204.957 161.397 205.529 161.819 205.951C162.241 206.373 162.813 206.61 163.41 206.61H347.86C348.457 206.61 349.029 206.373 349.451 205.951C349.873 205.529 350.11 204.957 350.11 204.36C350.11 203.763 349.873 203.191 349.451 202.769C349.029 202.347 348.457 202.11 347.86 202.11Z" fill="#7DA2AB"/>
<path d="M542.98 82.0201L543.65 81.1001" stroke="white" stroke-width="2.5" stroke-miterlimit="10"/>
<path d="M347.86 286.52H163.41C162.813 286.52 162.241 286.757 161.819 287.179C161.397 287.601 161.16 288.173 161.16 288.77C161.16 289.367 161.397 289.939 161.819 290.361C162.241 290.783 162.813 291.02 163.41 291.02H347.86C348.457 291.02 349.029 290.783 349.451 290.361C349.873 289.939 350.11 289.367 350.11 288.77C350.11 288.173 349.873 287.601 349.451 287.179C349.029 286.757 348.457 286.52 347.86 286.52Z" fill="#7DA2AB"/>
<path d="M298.11 370.93H163.41C162.813 370.93 162.241 371.167 161.819 371.589C161.397 372.011 161.16 372.583 161.16 373.18C161.16 373.777 161.397 374.349 161.819 374.771C162.241 375.193 162.813 375.43 163.41 375.43H298.11C298.707 375.43 299.279 375.193 299.701 374.771C300.123 374.349 300.36 373.777 300.36 373.18C300.36 372.583 300.123 372.011 299.701 371.589C299.279 371.167 298.707 370.93 298.11 370.93Z" fill="#7DA2AB"/>
<path d="M416.67 295.22C423.617 295.736 430.602 295.299 437.43 293.92C455.18 290.36 469.01 281.14 476.36 267.92L551.8 133.11C566.045 107.443 571.71 77.8951 567.97 48.78L562.31 5.47996C562.188 4.49603 561.835 3.55502 561.279 2.73442C560.722 1.91382 559.979 1.2371 559.11 0.759962C558.244 0.280267 557.278 0.00802329 556.289 -0.0353565C555.3 -0.0787362 554.315 0.107931 553.41 0.509962L513.59 18.51C486.861 30.634 464.704 50.9796 450.35 76.58L375.82 209.73C366.69 226.11 371.15 246.21 374.62 256.73C379.06 270.23 386.62 282.54 393.94 288.1L394.8 288.76L384.4 307.35L377.68 298.01C377.444 297.683 377.125 297.427 376.755 297.267C376.385 297.106 375.979 297.049 375.58 297.1C375.202 297.151 374.842 297.291 374.53 297.51C374.048 297.86 373.724 298.388 373.63 298.977C373.537 299.565 373.68 300.167 374.03 300.65L382.03 311.7L347.54 373.55C347.12 374.305 347.018 375.195 347.254 376.026C347.49 376.856 348.046 377.559 348.8 377.98C349.554 378.394 350.441 378.493 351.269 378.257C352.096 378.022 352.797 377.469 353.22 376.72L387.73 314.82L400.97 315.37C401.264 315.388 401.559 315.349 401.838 315.253C402.117 315.157 402.374 315.008 402.595 314.813C402.816 314.618 402.996 314.381 403.126 314.116C403.255 313.852 403.332 313.564 403.35 313.27C403.368 312.976 403.329 312.681 403.233 312.402C403.137 312.123 402.988 311.866 402.793 311.645C402.598 311.424 402.361 311.244 402.097 311.114C401.832 310.984 401.544 310.908 401.25 310.89L390.11 310.51L400.6 291.71L401.6 292.08C403.558 292.806 405.562 293.401 407.6 293.86C410.586 294.534 413.617 294.989 416.67 295.22ZM497.19 217.41L497.27 218.08L431.2 236.83L449.62 203.83L450.12 203.69L515.25 185.2L497.19 217.41ZM456.03 79.74C469.699 55.3498 490.806 35.9668 516.27 24.42L555.9 6.55997L561.52 49.66C565.075 77.3914 559.676 105.533 546.11 129.98L518.33 179.62L452.69 198.26L507.99 99.09C508.201 98.7168 508.336 98.3056 508.387 97.88C508.439 97.4544 508.406 97.0229 508.289 96.6102C508.173 96.1975 507.977 95.8119 507.711 95.4756C507.445 95.1392 507.115 94.8588 506.741 94.6504C506.366 94.442 505.954 94.3097 505.528 94.2612C505.102 94.2128 504.671 94.2491 504.259 94.368C503.847 94.4869 503.463 94.6862 503.129 94.9543C502.794 95.2223 502.516 95.5539 502.31 95.93L472.39 149.59L453.72 83.85L456.03 79.74ZM450.63 89.38L469.31 155.15L446.47 196.08L427.78 130.22L450.63 89.38ZM397.96 283.08L396.8 282.08C392.05 277.95 385.36 268.6 380.8 254.72C375.47 238.52 375.73 223.28 381.5 212.92L424.69 135.79L443.38 201.65L397.96 283.08ZM405.33 286.5L403.79 285.99L428.11 242.4L428.61 242.25L493.61 223.78L470.61 264.78C461.96 280.28 445.26 285.69 436.08 287.54C434.38 287.88 432.58 288.16 430.71 288.39C425.579 289.022 420.393 289.075 415.25 288.55C412.02 288.217 408.829 287.577 405.72 286.64L405.33 286.5Z" fill="#7DA2AB"/>
<path d="M512.78 87.1401C514.575 87.1401 516.03 85.6851 516.03 83.8901C516.03 82.0952 514.575 80.6401 512.78 80.6401C510.985 80.6401 509.53 82.0952 509.53 83.8901C509.53 85.6851 510.985 87.1401 512.78 87.1401Z" fill="#7DA2AB"/>
<path d="M418.82 435.69H413.69L413.75 301.75C411.51 301.413 409.311 300.844 407.19 300.05V435.69H194.58C178.88 435.69 164.93 442.42 158.16 453.25C152.43 462.44 152.31 473.72 157.83 485C158.016 485.385 158.277 485.728 158.599 486.01C158.92 486.292 159.294 486.506 159.7 486.64C160.309 486.856 160.969 486.885 161.595 486.724C162.221 486.563 162.784 486.219 163.214 485.736C163.643 485.253 163.919 484.653 164.005 484.012C164.092 483.372 163.986 482.72 163.7 482.14C159.14 472.81 159.14 464.01 163.7 456.7C169.27 447.7 181.11 442.19 194.6 442.19C220.6 442.19 229.92 463.57 229.92 483.57C229.92 506.38 210.33 524.94 186.25 524.94H175.25C134.25 524.94 100.87 493.28 100.87 454.36V105.22C100.87 95.9102 99.87 77.9102 93.36 61.9602C89.09 51.5502 83.09 43.4902 75.51 37.9602L72.38 35.7002H313.69C365.25 35.7002 407.19 75.5202 407.19 124.46V143.96L413.69 131.87V124.46C413.69 71.9302 368.83 29.2002 313.69 29.2002L42.38 29.4002C18.51 31.1502 2.31994 47.6402 0.209935 72.4502C-0.960065 86.3002 2.78995 98.7402 10.79 107.45C18.22 115.54 28.79 119.99 40.5 119.99C52.21 119.99 63.5899 112.75 68.8299 101.99C71.1148 97.4978 72.0592 92.4428 71.5503 87.4285C71.0415 82.4141 69.1008 77.652 65.9599 73.7102C65.6985 73.3741 65.3729 73.0932 65.0022 72.8838C64.6314 72.6744 64.2228 72.5406 63.8 72.4902C63.1562 72.399 62.4998 72.5031 61.9158 72.7888C61.3318 73.0746 60.8469 73.529 60.5238 74.0933C60.2008 74.6576 60.0544 75.3058 60.1036 75.9541C60.1528 76.6025 60.3954 77.2212 60.8 77.7302C63.1993 80.7068 64.6786 84.3183 65.0569 88.1228C65.4352 91.9272 64.6961 95.7594 62.93 99.1502C60.862 103.377 57.6706 106.952 53.7054 109.485C49.7401 112.018 45.1541 113.411 40.45 113.51C30.56 113.51 21.7099 109.8 15.5299 103.08C8.67994 95.6202 5.59994 85.2302 6.64994 73.0202C8.64994 49.6902 23.5799 35.7602 46.6499 35.7602C89.6499 35.7602 94.2799 84.3102 94.2799 105.19V454.35C94.2799 496.85 130.56 531.43 175.16 531.43H418.76C446.42 531.43 468.93 509.96 468.93 483.56C468.93 457.16 446.48 435.69 418.82 435.69ZM418.82 524.94H211.82L215.2 522.65C221.668 518.372 226.986 512.571 230.688 505.757C234.389 498.943 236.361 491.324 236.43 483.57C236.43 466.67 230.82 452.76 220.65 444.41L217.95 442.19H418.85C442.93 442.19 462.52 460.75 462.52 483.57C462.52 506.39 442.9 524.94 418.82 524.94Z" fill="#7DA2AB"/>
</g>
<defs>
<clipPath id="clip0_157_939">
<rect width="569.1" height="531.44" fill="white"/>
</clipPath>
</defs>
</svg>
