<svg width="76" height="84" viewBox="0 0 76 84" fill="none" xmlns="http://www.w3.org/2000/svg">
<path d="M54.4769 81.5481L30.3808 81.5058L25.1656 14.1248L50.7395 16.1617L54.4769 81.5481Z" fill="#FDF8ED"/>
<path d="M75.7701 21.2617C75.7957 16.6538 74.3423 12.1592 71.6235 8.4383C68.9048 4.7174 65.0639 1.96643 60.6654 0.589603C60.3801 0.483508 60.0666 0.481109 59.7798 0.582826C59.581 0.660323 59.4089 0.793563 59.2841 0.966533C59.1593 1.1395 59.0872 1.34483 59.0764 1.55782C59.1209 1.85428 59.1928 2.14598 59.2912 2.42917C60.6815 4.6061 61.6034 7.04854 61.9983 9.60108C62.3931 12.1536 62.2522 14.7604 61.5844 17.2555C60.9167 19.7506 59.7368 22.0794 58.1198 24.0938C56.5028 26.1082 54.4842 27.7641 52.1923 28.956C49.7772 27.5855 47.1654 26.5949 44.4488 26.0188L44.458 24.8171C44.4616 24.6339 44.4284 24.4517 44.3605 24.2814C44.2926 24.1111 44.1914 23.9561 44.0627 23.8254C43.934 23.6948 43.7806 23.5912 43.6113 23.5207C43.442 23.4503 43.2603 23.4143 43.0769 23.4151L33.4137 23.3411C33.2317 23.3397 33.0512 23.3744 32.8827 23.4433C32.7141 23.5121 32.5609 23.6137 32.432 23.7421C32.303 23.8705 32.2009 24.0233 32.1314 24.1915C32.0619 24.3597 32.0264 24.54 32.0271 24.722L32.0182 25.8921C29.2883 26.4533 26.6544 27.4079 24.199 28.726C21.9291 27.4956 19.9395 25.8073 18.3563 23.768C16.7731 21.7288 15.6308 19.3831 15.0017 16.8794C14.3726 14.3757 14.2704 11.7688 14.7017 9.22356C15.1329 6.67837 16.0882 4.25043 17.5069 2.0936C17.6618 1.84346 17.7809 1.57294 17.861 1.28987C17.8428 1.09385 17.7781 0.90501 17.672 0.739142C17.566 0.573273 17.4217 0.435209 17.2514 0.336455C16.9997 0.160589 16.1601 0.328104 16.1601 0.328104C11.7427 1.63806 7.86238 4.33056 5.08965 8.00968C2.31691 11.6888 0.798202 16.1604 0.75682 20.7668C0.718926 24.7912 1.82306 28.7439 3.94127 32.1662C6.05948 35.5886 9.1049 38.3404 12.7242 40.1024C12.6151 40.2429 12.5237 40.3962 12.4518 40.5589C10.4567 44.4044 9.4356 48.6805 9.47792 53.0124L9.44888 56.8072C9.44497 57.0107 9.48292 57.2129 9.56037 57.4012C9.63783 57.5895 9.75312 57.7598 9.89915 57.9017C10.0379 58.0563 10.2082 58.1794 10.3986 58.2626C10.5889 58.3459 10.7949 58.3875 11.0026 58.3845L13.5647 58.4041L13.4607 72.0023C13.4405 72.1618 13.4544 72.3238 13.5014 72.4776C13.5484 72.6314 13.6275 72.7735 13.7334 72.8945C13.8393 73.0155 13.9697 73.1128 14.1159 73.1798C14.2621 73.2468 14.4209 73.2821 14.5818 73.2833C14.7426 73.2846 14.9018 73.2517 15.0491 73.1869C15.1963 73.1222 15.3281 73.0269 15.4359 72.9075C15.5436 72.7881 15.6249 72.6473 15.6742 72.4942C15.7236 72.3412 15.74 72.1794 15.7223 72.0196L15.8263 58.4214L31.879 58.5443L33.8381 73.2967L41.8724 73.3582L44.0253 58.6372L60.0305 58.7597L59.9264 72.3579C59.9063 72.5174 59.9202 72.6794 59.9672 72.8332C60.0142 72.987 60.0933 73.1291 60.1992 73.2501C60.3051 73.3711 60.4355 73.4683 60.5817 73.5354C60.7279 73.6024 60.8867 73.6377 61.0476 73.6389C61.2084 73.6401 61.3676 73.6073 61.5148 73.5425C61.6621 73.4777 61.7939 73.3825 61.9017 73.2631C62.0094 73.1437 62.0906 73.0029 62.14 72.8498C62.1894 72.6968 62.2057 72.535 62.188 72.3752L62.2921 58.777L64.8542 58.7966C65.2736 58.7998 65.6772 58.6363 65.976 58.3421C66.2749 58.0478 66.4446 57.6469 66.4478 57.2275L66.481 52.8951C66.5092 48.564 65.4545 44.2945 63.4128 40.4745C67.0801 38.7695 70.1882 36.0591 72.3757 32.658C74.5631 29.257 75.7402 25.3051 75.7701 21.2617ZM3.01902 20.705C3.0597 17.0563 4.13375 13.4939 6.1167 10.4306C8.09965 7.36722 10.9103 4.92841 14.2229 3.39675C12.0357 8.01249 11.6116 13.2684 13.0306 18.175C14.4496 23.0816 17.6137 27.3003 21.9273 30.0369C21.482 30.3497 21.0367 30.6626 20.607 31.0072C20.0978 31.3715 19.609 31.7637 19.143 32.1819L18.1554 33.0915L17.5498 33.6877C16.3629 34.8583 15.2935 36.1424 14.3572 37.5216C14.1893 37.706 14.0395 37.9061 13.9097 38.1191C10.6139 36.5632 7.83245 34.0965 5.89415 31.0106C3.95584 27.9246 2.94169 24.3484 2.97153 20.7046L3.01902 20.705ZM31.8014 56.2825L11.7475 56.129L11.7717 52.9667C11.7375 48.9991 12.6684 45.0827 14.4845 41.5548C14.7571 41.0667 15.0296 40.5944 15.3337 40.1224C17.649 36.3278 20.8822 33.1768 24.7355 30.9597L24.8945 30.8502C27.1106 29.6226 29.4937 28.7247 31.969 28.1846L31.8014 56.2825ZM41.9949 57.3409L41.8111 58.6203L39.976 71.0825L35.864 71.051L34.2039 58.5621L34.0386 57.4223L34.2819 25.6248L42.1897 25.6853L41.9949 57.3409ZM64.2825 52.8941L64.2547 56.5308L44.2324 56.3776L44.4469 28.3433C46.9765 28.9413 49.4008 29.9195 51.6369 31.2446C55.4494 33.5272 58.6366 36.719 60.9133 40.5344C63.1189 44.2777 64.267 48.5493 64.2351 52.8937L64.2825 52.8941ZM62.368 38.5215C61.7645 37.5744 61.0948 36.671 60.3642 35.818C60.1763 35.5636 59.9724 35.3406 59.7686 35.1019L59.0629 34.3217L58.2939 33.5409C57.1167 32.3612 55.833 31.2927 54.4592 30.3491C58.8202 27.676 62.0593 23.5079 63.5723 18.6225C65.0852 13.7371 64.7684 8.46826 62.6811 3.79918C65.9688 5.38287 68.7407 7.86478 70.6764 10.9578C72.612 14.0508 73.6321 17.6284 73.6189 21.2769C73.5826 24.9305 72.4989 28.4972 70.4963 31.5536C68.4937 34.6101 65.6563 37.0282 62.3205 38.5211L62.368 38.5215Z" fill="#ECB947"/>
<path d="M40.7845 56.3513C40.5577 55.7931 40.1708 55.3145 39.6724 54.9758C39.1739 54.6372 38.5864 54.4536 37.9837 54.4482C37.3851 54.4443 36.799 54.6194 36.3005 54.9508C35.802 55.2823 35.4139 55.755 35.1859 56.3085C35.0268 56.6637 34.9431 57.048 34.9401 57.4372C34.9371 57.8264 35.015 58.2119 35.1686 58.5695C35.3903 59.1283 35.7737 59.6083 36.2699 59.948C36.766 60.2876 37.3522 60.4715 37.9535 60.4761C38.5547 60.4807 39.1438 60.3058 39.645 59.9738C40.1463 59.6418 40.537 59.1677 40.7672 58.6124C41.0515 57.8866 41.0577 57.0814 40.7845 56.3513ZM38.901 58.5981C38.7733 58.7157 38.6232 58.8064 38.4598 58.8649C38.2963 58.9234 38.1227 58.9485 37.9494 58.9387C37.6 58.9462 37.2612 58.8191 37.0032 58.5836C36.8443 58.4381 36.7169 58.2618 36.6286 58.0653C36.5404 57.8689 36.4932 57.6565 36.4899 57.4411C36.494 57.2229 36.5483 57.0086 36.6485 56.8147C36.7487 56.6207 36.8922 56.4525 37.0679 56.3229C37.3164 56.1028 37.64 55.9864 37.9719 55.9977C38.3083 55.9938 38.6342 56.1146 38.8867 56.3368C39.0574 56.4707 39.1953 56.6418 39.2897 56.8371C39.3842 57.0324 39.4327 57.2467 39.4316 57.4636C39.4251 57.6789 39.3747 57.8906 39.2835 58.0857C39.1922 58.2807 39.0621 58.4551 38.901 58.5981Z" fill="#ECB947"/>
<path d="M38.02 41.4504C37.4226 41.4458 36.8371 41.6185 36.3378 41.9465C35.8385 42.2745 35.4478 42.7432 35.215 43.2933C34.9821 43.8434 34.9176 44.4502 35.0297 45.0369C35.1418 45.6237 35.4253 46.164 35.8445 46.5896C36.2638 47.0152 36.7998 47.3069 37.3849 47.4279C37.97 47.5489 38.5778 47.4938 39.1315 47.2694C39.6852 47.0451 40.16 46.6616 40.4958 46.1675C40.8315 45.6734 41.013 45.0908 41.0176 44.4935C41.0196 43.6938 40.7058 42.9256 40.1446 42.3558C39.5833 41.786 38.8198 41.4606 38.02 41.4504ZM37.9858 45.9251C37.6942 45.9229 37.4099 45.834 37.1689 45.6699C36.9279 45.5057 36.7412 45.2737 36.6324 45.0032C36.5237 44.7327 36.4977 44.4361 36.558 44.1508C36.6182 43.8656 36.7618 43.6047 36.9707 43.4013C37.1795 43.1979 37.4442 43.0611 37.7309 43.0083C38.0177 42.9556 38.3136 42.9892 38.5812 43.105C38.8488 43.2208 39.076 43.4135 39.2338 43.6586C39.3917 43.9037 39.4731 44.1902 39.4677 44.4817C39.4606 44.8689 39.301 45.2377 39.0235 45.5079C38.7461 45.7782 38.3731 45.9281 37.9858 45.9251Z" fill="#ECB947"/>
<path d="M38.1195 28.4372C37.7057 28.4041 37.2896 28.4565 36.897 28.5913C36.5044 28.7261 36.1437 28.9403 35.8376 29.2206C35.5315 29.5009 35.2865 29.8413 35.1178 30.2205C34.9491 30.5997 34.8605 31.0096 34.8573 31.4246C34.8541 31.8396 34.9365 32.2508 35.0994 32.6325C35.2622 33.0143 35.502 33.3583 35.8038 33.6433C36.1055 33.9283 36.4629 34.148 36.8534 34.2888C37.2439 34.4296 37.6592 34.4884 38.0734 34.4615C38.4872 34.4947 38.9034 34.4423 39.296 34.3075C39.6886 34.1727 40.0492 33.9585 40.3553 33.6781C40.6614 33.3978 40.9065 33.0575 41.0751 32.6782C41.2438 32.299 41.3325 31.8892 41.3356 31.4742C41.3388 31.0592 41.2564 30.648 41.0936 30.2662C40.9307 29.8845 40.691 29.5404 40.3892 29.2554C40.0874 28.9705 39.7301 28.7507 39.3396 28.61C38.9491 28.4692 38.5338 28.4104 38.1195 28.4372ZM38.0853 32.912C37.7937 32.9097 37.5094 32.8209 37.2684 32.6567C37.0275 32.4926 36.8407 32.2605 36.732 31.9901C36.6232 31.7196 36.5973 31.4229 36.6575 31.1377C36.7177 30.8525 36.8614 30.5916 37.0702 30.3882C37.2791 30.1847 37.5437 30.048 37.8305 29.9952C38.1172 29.9425 38.4132 29.9761 38.6808 30.0919C38.9484 30.2077 39.1755 30.4004 39.3334 30.6455C39.4912 30.8906 39.5726 31.1771 39.5672 31.4685C39.5601 31.8557 39.4005 32.2245 39.123 32.4948C38.8456 32.765 38.4726 32.915 38.0853 32.912Z" fill="#ECB947"/>
</svg>
