<svg width="59" height="98" viewBox="0 0 59 98" fill="none" xmlns="http://www.w3.org/2000/svg">
<rect x="25.1457" y="0.618408" width="21" height="95" transform="rotate(3.76012 25.1457 0.618408)" fill="#FDF8ED"/>
<path d="M55.9414 58.5715C55.8774 58.3809 55.7968 58.1962 55.7005 58.0197C54.0653 53.9116 51.4513 50.2649 48.0857 47.3967C44.2172 44.1785 39.5734 42.0287 34.6163 41.161L37.0914 8.96597L21.1019 9.07206L23.7032 41.186C18.8837 42.1828 14.3971 44.3892 10.6657 47.5975C7.34807 50.5154 4.7889 54.1952 3.20832 58.3205C3.11435 58.4983 3.03621 58.684 2.97477 58.8755C1.69534 62.352 1.05529 66.0312 1.08557 69.7355L1.19121 85.6581C1.19221 85.8076 1.22265 85.9554 1.28079 86.0932C1.33893 86.2309 1.42367 86.3559 1.53012 86.4609C1.63656 86.5659 1.76264 86.6489 1.90118 86.7052C2.03971 86.7615 2.18795 86.7899 2.33749 86.789C2.48703 86.788 2.63493 86.7576 2.7727 86.6994C2.91048 86.6413 3.03545 86.5566 3.14049 86.4502C3.24553 86.3438 3.32856 86.2177 3.38486 86.0792C3.44117 85.9407 3.46965 85.7924 3.46866 85.6429L3.36312 69.7362C3.35777 68.9298 3.35263 68.155 3.44175 67.2847C3.43924 66.9052 3.43653 66.4941 3.56044 66.098C3.68434 65.7018 3.55748 65.6552 3.63519 65.4492C3.71291 65.2431 3.72643 64.8951 3.7878 64.6101C3.84917 64.3251 3.92457 63.7711 4.01674 63.3594C4.1089 62.9476 4.20109 62.5359 4.32488 62.1239C4.42147 61.706 4.54018 61.2935 4.68048 60.8882C4.67901 60.6668 4.80402 60.4446 4.88174 60.2385L26.0898 55.2275L29.4217 54.4306L32.2411 55.0602L32.4626 55.0588L54.0205 59.8809C54.112 60.0959 54.1875 60.3174 54.2463 60.5435C54.3941 60.9409 54.5182 61.3466 54.6181 61.7586C54.7365 62.1163 54.8339 62.4951 54.9104 62.8952C55.0241 63.3372 55.1061 63.7952 55.1883 64.2532C55.2542 64.5344 55.3036 64.8192 55.3363 65.1062L55.4353 65.738C55.438 66.1333 55.5356 66.5438 55.5699 66.9388C55.5752 67.7453 55.6753 68.5194 55.6808 69.3575L55.7865 85.28C55.7885 85.582 55.9103 85.8708 56.1253 86.0828C56.3403 86.2949 56.6307 86.4129 56.9327 86.4109C57.2347 86.4089 57.5236 86.2871 57.7357 86.0722C57.9479 85.8572 58.0659 85.5669 58.0639 85.2649L57.9585 69.374C57.9382 65.6815 57.255 62.0226 55.9414 58.5715ZM5.86134 57.702C7.3368 54.5081 9.47441 51.6642 12.1325 49.3588C15.4774 46.4567 19.5005 44.4449 23.8294 43.5096L24.5586 53.3086L5.86134 57.702ZM32.3202 40.7493L32.2332 41.9358L32.1614 43.0432L31.4499 52.6146L29.3433 52.1541L26.7377 52.7723L26.0252 43.1155L25.8361 40.8398L23.5043 11.2066L34.5752 11.1332L32.3202 40.7493ZM33.715 53.1213L34.4569 43.36C38.939 44.2002 43.1266 46.1883 46.6104 49.1301C49.2961 51.4027 51.4707 54.2173 52.9917 57.3893L33.715 53.1213Z" fill="#1D1E16"/>
<path d="M33.1304 86.6003L24.938 86.6547L24.9299 85.4372L24.8719 76.6932L9.58808 73.5056L9.62741 79.435C9.62942 79.737 9.51138 80.0273 9.29924 80.2422C9.08711 80.4571 8.79825 80.579 8.49625 80.581C8.19424 80.583 7.90379 80.465 7.68882 80.2529C7.47386 80.0408 7.35197 79.7521 7.34997 79.4501L7.30381 72.4929C7.30523 72.2793 7.35363 72.0687 7.44563 71.876C7.53763 71.6833 7.67098 71.5131 7.83614 71.3777C8.0013 71.2423 8.19424 71.1449 8.40129 71.0924C8.60835 71.0399 8.82445 71.0337 9.0342 71.0741L27.0897 74.8442L27.1527 84.3313L32.1188 84.2984L32.0558 74.8112L50.0755 70.8018C50.2876 70.7529 50.5082 70.7539 50.7198 70.8046C50.9315 70.8554 51.1285 70.9544 51.2954 71.0941C51.4622 71.2263 51.5976 71.3938 51.6918 71.5846C51.7861 71.7754 51.8368 71.9847 51.8404 72.1974L51.8866 79.1546C51.8886 79.4566 51.7706 79.7469 51.5584 79.9619C51.3463 80.1768 51.0574 80.2987 50.7554 80.3007C50.4534 80.3027 50.163 80.1846 49.948 79.9725C49.733 79.7605 49.6112 79.4717 49.6091 79.1698L49.5699 73.2561L34.3297 76.6462L34.3952 86.5129L33.1304 86.6003Z" fill="#1D1E16"/>
</svg>
