<svg width="71" height="94" viewBox="0 0 71 94" fill="none" xmlns="http://www.w3.org/2000/svg">
<rect x="23.9155" y="1.7229" width="21" height="92.4226" transform="rotate(-4.3087 23.9155 1.7229)" fill="#FDF8ED"/>
<path d="M45.9476 84.3525C45.6498 84.3531 45.364 84.2354 45.1529 84.0253C44.9419 83.8151 44.823 83.5298 44.8224 83.2321L44.8063 75.326C44.8094 74.8072 45.0163 74.3105 45.3824 73.9429C45.7486 73.5754 46.2446 73.3665 46.7635 73.3613L59.7958 73.3347L57.8167 64.5313L25.2201 64.5977L23.2768 73.3933L36.2934 73.3668C36.8122 73.3699 37.309 73.5768 37.6767 73.9428C38.0443 74.3089 38.2533 74.8048 38.2585 75.3235L38.2746 83.2296C38.2424 83.5065 38.1097 83.7619 37.9016 83.9475C37.6936 84.1331 37.4246 84.2359 37.1458 84.2365C36.867 84.237 36.5977 84.1353 36.3889 83.9506C36.1801 83.7659 36.0463 83.511 36.0129 83.2342L35.9973 75.5653L22.9176 75.5919C22.6504 75.5925 22.3858 75.5402 22.1389 75.438C21.892 75.3358 21.6678 75.1857 21.4793 74.9965C21.2907 74.8072 21.1415 74.5826 21.0401 74.3354C20.9388 74.0882 20.8874 73.8234 20.8889 73.5563L20.8884 73.3191L22.9259 64.1438C22.9609 63.632 23.1891 63.1526 23.5642 62.8025C23.9393 62.4524 24.4333 62.2578 24.9465 62.2581L57.9542 62.1908C58.4673 62.1885 58.9622 62.3811 59.3387 62.7296C59.7152 63.0782 59.9454 63.5567 59.9825 64.0684L62.0737 73.5515C62.0763 73.8186 62.0261 74.0836 61.9258 74.3312C61.8255 74.5788 61.6771 74.804 61.4893 74.994C61.3015 75.184 61.0779 75.335 60.8315 75.4382C60.585 75.5414 60.3206 75.5948 60.0534 75.5954L47.0053 75.6219L47.0209 83.2909C47.006 83.5695 46.8878 83.8327 46.6894 84.0289C46.4909 84.2252 46.2265 84.3405 45.9476 84.3525Z" fill="#7DA2AB"/>
<path d="M66.2104 54.5524C63.6992 50.4369 60.2096 47.0057 56.052 44.5639C54.2208 43.4999 52.2709 42.6547 50.2424 42.0458L50.2314 36.6222C50.2305 36.2028 50.063 35.801 49.7658 35.505C49.4686 35.2091 49.066 35.0433 48.6466 35.0442L47.9665 35.0456L47.9625 33.0849C47.9701 31.3154 48.3288 29.565 49.0177 27.935C49.7067 26.3051 50.7122 24.828 51.9762 23.5893C53.1481 22.4166 54.5475 21.4958 56.0884 20.8836C57.6293 20.2713 59.2791 19.9805 60.9366 20.0291C61.8019 20.048 62.6621 20.1683 63.4995 20.3876C63.8449 20.5293 64.2188 20.5882 64.5911 20.5593C64.9389 20.4637 65.0014 20.1315 65.064 19.7677C65.0337 19.3993 64.9076 19.0452 64.6981 18.7407C63.3731 16.7252 61.5653 15.0728 59.4388 13.9338C57.3123 12.7949 54.9348 12.2054 52.5224 12.2192C48.6089 12.308 44.8529 13.7775 41.9184 16.3678C39.8651 12.8894 36.9309 10.0136 33.4115 8.03031C29.8922 6.04704 25.912 5.02638 21.8724 5.0712C18.7104 4.98065 15.5671 5.58537 12.6646 6.84266C9.76209 8.09995 7.17116 9.97914 5.07482 12.3474C3.15368 14.6633 1.76449 17.3725 1.00523 20.2838C0.245967 23.1952 0.135152 26.2376 0.680692 29.1965C0.721934 29.4481 0.845337 29.679 1.03167 29.8531C1.21801 30.0272 1.45682 30.1348 1.71073 30.1589C2.00646 30.0933 2.29304 29.9919 2.56414 29.8567C2.69479 29.7081 2.79638 29.5363 2.86361 29.3502C3.87466 25.8829 6.01827 22.8542 8.95237 20.7473C11.8865 18.6405 15.442 17.5771 19.0513 17.7268C23.3197 18.0092 27.3169 19.9182 30.2189 23.0602C33.1209 26.2023 34.7064 30.3378 34.6485 34.6141L34.6497 35.1834L34.2069 35.1843C33.7874 35.1851 33.3855 35.3525 33.0895 35.6497C32.7935 35.9468 32.6277 36.3494 32.6285 36.7687L32.6395 42.1607C30.6079 42.7833 28.6562 43.6416 26.8244 44.7183C22.6885 47.1882 19.2245 50.6382 16.7385 54.7638C16.4133 55.2736 16.1186 55.8022 15.856 56.3469C13.9095 60.2219 12.9254 64.5087 12.9871 68.8444L13.0168 83.4075C13.0174 83.7094 13.138 83.9987 13.352 84.2118C13.566 84.4249 13.8559 84.5443 14.1579 84.5436C14.4599 84.543 14.7493 84.4225 14.9624 84.2085C15.1755 83.9946 15.2949 83.7048 15.2943 83.4028L15.2646 68.8398C15.1938 64.8679 16.0867 60.938 17.8668 57.3864C18.107 56.8913 18.3753 56.4103 18.6705 55.9458C21.0344 52.0197 24.3717 48.7699 28.3597 46.5109C32.3477 44.2519 36.8513 43.0601 41.435 43.0507C46.0186 43.0414 50.5271 44.2149 54.5242 46.4576C58.5214 48.7004 61.8719 51.9365 64.2518 55.853C66.5032 59.5706 67.6934 63.8336 67.6932 68.1796L67.724 83.2961C67.7246 83.598 67.8451 83.8873 68.0591 84.1004C68.2731 84.3135 68.563 84.4328 68.865 84.4322C69.167 84.4316 69.4565 84.311 69.6696 84.0971C69.8827 83.8832 70.0021 83.5934 70.0015 83.2914L69.9707 68.1749C69.997 63.3744 68.6957 58.6599 66.2104 54.5524ZM19.0945 15.6711C15.6873 15.5612 12.3167 16.4009 9.35955 18.0964C6.40236 19.7918 3.97514 22.2761 2.34918 25.2716C2.34373 20.9851 3.85974 16.8357 6.62732 13.5618C8.5424 11.4169 10.9045 9.7178 13.5473 8.58413C16.1901 7.45046 19.0494 6.9098 21.9238 7.0002C25.8429 6.91759 29.7057 7.94315 33.0675 9.95883C36.4292 11.9745 39.1533 14.8984 40.9261 18.3938L41.5771 19.6732L42.5397 18.6119C43.8388 17.2349 45.3996 16.1309 47.1307 15.3644C48.8618 14.598 50.7283 14.1844 52.6212 14.1481C54.326 14.1389 56.0146 14.4791 57.5828 15.1477C59.151 15.8162 60.5655 16.7989 61.7391 18.0351C61.5232 18.0199 61.3065 18.0203 61.0907 18.0365C59.1647 17.9786 57.2471 18.3153 55.4561 19.026C53.6651 19.7367 52.0385 20.8062 50.6764 22.1688C49.2213 23.5977 48.0655 25.302 47.2764 27.1823C46.4873 29.0626 46.0808 31.0812 46.0805 33.1203L46.0845 35.081L36.674 35.1002L36.673 34.61C36.7378 29.7999 34.9481 25.1493 31.6752 21.6231C28.4022 18.0968 23.8972 15.9654 19.0945 15.6711ZM47.9636 41.4021C43.6765 40.446 39.2304 40.4551 34.9472 41.4286L34.9389 37.3649L47.9553 37.3384L47.9636 41.4021Z" fill="#7DA2AB"/>
</svg>
