<svg width="113" height="113" viewBox="0 0 113 113" fill="none" xmlns="http://www.w3.org/2000/svg">
<rect x="53.7916" y="8.12158" width="18" height="92" transform="rotate(8.34477 53.7916 8.12158)" fill="#FDF8ED"/>
<path d="M47.5908 84.7945C47.442 84.7937 47.2948 84.7633 47.1579 84.705C47.0209 84.6468 46.8969 84.562 46.7931 84.4554C46.6892 84.3489 46.6076 84.2228 46.5529 84.0844C46.4982 83.946 46.4716 83.7982 46.4746 83.6495L46.5238 75.3165C46.5582 75.0399 46.693 74.7855 46.9025 74.6016C47.112 74.4177 47.3817 74.317 47.6605 74.3187C47.9394 74.3203 48.2078 74.4242 48.4152 74.6106C48.6225 74.7969 48.7542 75.0529 48.7854 75.3299L48.7362 83.6628C48.7344 83.9648 48.6127 84.2536 48.3979 84.4659C48.1831 84.6781 47.8928 84.7963 47.5908 84.7945Z" fill="#862729"/>
<path d="M37.6721 82.4429C37.3701 82.4411 37.0812 82.3195 36.8689 82.1047C36.6566 81.89 36.5384 81.5997 36.5402 81.2977L36.5637 77.3131C36.5981 77.0365 36.7328 76.7821 36.9424 76.5982C37.1519 76.4143 37.4217 76.3136 37.7005 76.3153C37.9793 76.3169 38.2478 76.4208 38.4551 76.6071C38.6624 76.7935 38.7941 77.0495 38.8253 77.3265L38.8018 81.3111C38.803 81.4598 38.7746 81.6074 38.7183 81.7451C38.662 81.8828 38.5789 82.0079 38.4737 82.1133C38.3686 82.2186 38.2437 82.302 38.106 82.3585C37.9684 82.4151 37.8209 82.4438 37.6721 82.4429Z" fill="#862729"/>
<path d="M57.5523 82.5603C57.2503 82.5586 56.9614 82.4369 56.7491 82.2222C56.5368 82.0074 56.4186 81.7171 56.4204 81.4152L56.4439 77.4306C56.4783 77.1539 56.6131 76.8996 56.8226 76.7156C57.0321 76.5317 57.3018 76.4311 57.5806 76.4327C57.8594 76.4343 58.128 76.5382 58.3353 76.7246C58.5426 76.9109 58.6744 77.1669 58.7055 77.4439L58.682 81.4285C58.6832 81.5773 58.6548 81.7248 58.5985 81.8625C58.5422 82.0002 58.4591 82.1254 58.354 82.2307C58.2489 82.336 58.1239 82.4194 57.9863 82.476C57.8486 82.5326 57.7011 82.5612 57.5523 82.5603Z" fill="#862729"/>
<path d="M58.2514 41.8474C61.0508 41.864 62.4276 44.4021 62.7783 46.6179C63.4952 51.0971 67.9834 57.0533 74.9138 59.2447C76.5554 59.7624 78.2648 60.0336 79.9861 60.0495C85.6955 60.0832 91.5166 57.2713 96.8155 51.8473C97.0609 51.6525 97.2263 51.3745 97.2806 51.066C97.3349 50.7574 97.2742 50.4397 97.11 50.1729C96.5615 49.3158 95.7373 49.6114 94.3423 50.1566C93.5246 50.5049 92.6683 50.7546 91.7915 50.9005C90.6832 50.894 89.5869 50.669 88.5657 50.2384C87.5444 49.8078 86.6182 49.1801 85.8398 48.3912C85.0615 47.6024 84.4463 46.6677 84.0296 45.6409C83.613 44.6141 83.403 43.5152 83.4116 42.4071L83.3033 39.323C83.1825 33.4766 80.7836 27.9083 76.6173 23.8039C72.451 19.6996 66.8467 17.3835 60.9977 17.349C55.1488 17.3144 49.5175 19.5642 45.303 23.619C41.0886 27.6739 38.6241 33.2135 38.4343 39.0581L38.3582 51.9449C33.5457 53.5406 29.2423 56.3829 25.8859 60.1824C22.5295 63.9818 20.2402 68.6026 19.2511 73.5743L16.2104 74.2521C15.8561 74.3335 15.5406 74.5344 15.3171 74.8211C15.0936 75.1078 14.9757 75.4627 14.9832 75.8261L14.9278 85.2184C14.9201 85.5951 15.0471 85.9621 15.2861 86.2534C15.525 86.5447 15.8602 86.7412 16.2312 86.8073L19.0281 87.235L18.9807 95.2675C18.979 95.5652 19.0956 95.8515 19.3049 96.0633C19.5143 96.275 19.7991 96.395 20.0969 96.3968C20.3947 96.3985 20.6811 96.2819 20.8929 96.0726C21.1048 95.8633 21.2248 95.5785 21.2265 95.2807L21.2734 87.3431L47.2357 91.3547L47.6469 91.3571L73.7971 87.6532L73.7517 95.3537C73.7318 95.5133 73.746 95.6752 73.7933 95.8289C73.8405 95.9827 73.9198 96.1246 74.026 96.2454C74.1321 96.3663 74.2626 96.4633 74.409 96.53C74.5553 96.5968 74.7141 96.6318 74.8749 96.6327C75.0358 96.6337 75.195 96.6006 75.3421 96.5355C75.4893 96.4705 75.6209 96.3751 75.7285 96.2555C75.836 96.1359 75.917 95.9949 75.9661 95.8418C76.0152 95.6886 76.0313 95.5268 76.0133 95.367L76.0607 87.3345L78.8309 86.9398C79.2055 86.8814 79.5466 86.6904 79.7922 86.4016C80.0377 86.1128 80.1713 85.7455 80.1687 85.3664L80.2241 75.9741C80.2368 75.613 80.1254 75.2584 79.9084 74.9694C79.6914 74.6804 79.382 74.4745 79.0316 74.3858L75.9832 73.6721C74.9482 68.0831 72.2749 62.9278 68.3028 58.8613C64.3306 54.7948 59.239 52.0005 53.6748 50.8336L53.7028 46.09C53.7781 44.9367 54.2907 43.8557 55.136 43.0673C55.9812 42.2789 57.0954 41.8426 58.2514 41.8474ZM76.3949 76.2677L77.9743 76.6408L77.9259 84.8472L47.5808 89.1588L17.2888 84.4892L17.3374 76.2511L18.9211 75.8968L47.697 69.4729L76.3949 76.2677ZM73.5658 73.2625L48.0423 67.2453L47.6153 67.2428L21.7693 73.0041C22.8207 68.5687 25.0038 64.4815 28.1059 61.141C31.208 57.8005 35.1232 55.3209 39.4694 53.9438C39.6917 53.8571 39.9193 53.7845 40.1508 53.7265C43.631 52.7228 47.2791 52.4377 50.8731 52.8884C54.467 53.3392 57.9317 54.5164 61.0561 56.3484C64.1805 58.1804 66.8995 60.6289 69.0473 63.5448C71.1951 66.4608 72.727 69.7832 73.5496 73.3098L73.5658 73.2625ZM51.456 46.2506L51.4307 50.5357C50.2245 50.383 49.0103 50.3019 47.7945 50.2928C45.3821 50.2765 42.9776 50.5705 40.6403 51.1677L40.7126 38.9293C40.7442 33.5824 42.899 28.4671 46.703 24.7087C50.507 20.9502 55.6485 18.8565 60.9966 18.8881C66.3446 18.9196 71.4612 21.0739 75.2205 24.877C78.9798 28.6802 81.074 33.8205 81.0425 39.1674L81.1662 42.3306C81.1537 45.16 82.2637 47.879 84.253 49.8915C86.2424 51.904 88.9487 53.0458 91.7787 53.0667L92.0317 53.0682C85.3257 58.4207 79.5064 58.2598 75.5755 57.0191C69.7502 55.1662 65.6207 50.0502 65.0109 46.1884C64.401 42.3265 61.6812 39.5591 58.265 39.5389C57.3652 39.5377 56.4741 39.715 55.6433 40.0605C54.8125 40.4061 54.0585 40.913 53.4251 41.552C52.7917 42.191 52.2914 42.9493 51.9533 43.783C51.6151 44.6167 51.4457 45.5092 51.4551 46.4088L51.456 46.2506Z" fill="#862729"/>
</svg>
