<svg width="84" height="84" viewBox="0 0 84 84" fill="none" xmlns="http://www.w3.org/2000/svg">
<rect width="84" height="84" fill="#862729"/>
<path d="M61.098 33.2339L60.7306 32.94L57.6109 33.608C57.5973 33.6178 57.5809 33.623 57.5641 33.623C57.5474 33.623 57.531 33.6178 57.5174 33.608C56.062 31.1313 54.0329 29.0406 51.6008 27.5119C49.1688 25.9831 46.405 25.0611 43.5423 24.8235C43.0461 24.7967 42.5488 24.7967 42.0526 24.8235V21.4232C42.0526 15.3174 37.6837 9.83296 31.6247 9.09146C30.0706 8.89787 28.4936 9.0123 26.9837 9.42824C25.4739 9.84419 24.0607 10.5535 22.825 11.5156C21.5893 12.4778 20.5552 13.6739 19.7819 15.0357C19.0085 16.3976 18.5109 17.8984 18.3176 19.4525C18.2594 19.9381 18.2282 20.4265 18.2241 20.9155L18.164 23.5876C18.164 24.6318 17.7497 25.6332 17.012 26.3722C16.2742 27.1111 15.2735 27.5272 14.2293 27.5289C13.8297 27.4377 13.4386 27.3125 13.0603 27.1549C12.3922 26.8876 11.6307 26.6071 11.1764 27.3219C11.0345 27.5346 10.9751 27.7919 11.0096 28.0453C11.044 28.2988 11.1699 28.5309 11.3635 28.698C14.7036 32.1517 17.8901 33.0535 20.2683 33.0535C21.2016 33.0514 22.1292 32.9095 23.0205 32.6327C26.7414 31.477 29.173 28.2838 29.5605 25.8723C29.7208 24.9103 30.3221 23.7746 31.5045 23.7746C32.0153 23.7746 32.5054 23.9771 32.8672 24.3377C33.2291 24.6984 33.4333 25.1877 33.435 25.6986V27.736C33.4417 27.7555 33.4417 27.7767 33.435 27.7962C32.8065 28.26 32.2126 28.7691 31.6581 29.3193C30.1993 30.7977 29.0485 32.551 28.2721 34.4774C27.4958 36.4039 27.1095 38.4653 27.1356 40.5421V42.4994C27.1362 45.2092 27.8509 47.8709 29.2078 50.2165C30.5647 52.562 32.5159 54.5085 34.8646 55.8599C34.8646 55.8599 34.9114 55.9067 34.8646 55.9401C33.9695 58.9061 30.7295 69.4475 28.7789 75.9808H30.783C32.3395 70.9105 36.8487 56.1271 36.9823 55.6929L37.1894 54.9113L36.5213 54.5439C34.2891 53.4031 32.4153 51.6677 31.1069 49.5294C29.7984 47.3911 29.1061 44.9328 29.1062 42.4259V40.2348C29.0835 38.3879 29.444 36.5563 30.1649 34.8557C30.8859 33.1552 31.9516 31.6226 33.2948 30.3547C33.696 29.9667 34.1296 29.6136 34.5907 29.2992C34.7726 29.1379 34.9747 29.0009 35.192 28.8917C36.9585 27.7301 38.9756 27.0044 41.0773 26.7741C41.1434 26.7874 41.2115 26.7874 41.2777 26.7741C41.9937 26.7206 42.7127 26.7206 43.4287 26.7741C45.8648 26.9759 48.2213 27.7381 50.3142 29.0012C52.407 30.2644 54.1795 31.9942 55.4933 34.0556C55.5092 34.0728 55.5181 34.0955 55.5181 34.119C55.5181 34.1426 55.5092 34.1652 55.4933 34.1825L41.8923 37.2754C41.6199 37.337 41.3763 37.4884 41.2005 37.7053C41.0248 37.9223 40.9273 38.1921 40.9236 38.4712V44.0292C40.9255 44.3238 41.033 44.6079 41.2268 44.8298C41.4205 45.0517 41.6875 45.1967 41.9791 45.2383L55.854 47.3025C55.8763 47.3098 55.8955 47.3242 55.9088 47.3435C55.9221 47.3628 55.9286 47.386 55.9275 47.4094L54.7317 55.586C54.7235 55.6382 54.695 55.685 54.6525 55.7162C54.6099 55.7475 54.5568 55.7607 54.5046 55.753L50.6367 54.771H50.4029C50.0554 54.7709 49.7215 54.9061 49.4721 55.1481C49.2226 55.39 49.0773 55.7196 49.0669 56.067V65.9671L55.7471 75.9875C55.7689 75.9942 55.7921 75.9942 55.8139 75.9875H58.0985L51.0576 65.3526C51.054 65.3453 51.0522 65.3373 51.0522 65.3292C51.0522 65.3211 51.054 65.3131 51.0576 65.3058V57.0156C51.0591 56.9949 51.0681 56.9754 51.0828 56.9606C51.0975 56.9459 51.117 56.937 51.1377 56.9354L55.7738 58.0911C55.8387 58.107 55.9062 58.11 55.9722 58.0998C56.0383 58.0896 56.1017 58.0665 56.1588 58.0317C56.2159 57.997 56.2656 57.9513 56.305 57.8973C56.3444 57.8433 56.3727 57.782 56.3884 57.717C56.3884 57.717 56.3884 57.717 56.3884 57.6636L57.8113 47.7234C57.8129 47.7119 57.8168 47.7009 57.8228 47.691C57.8287 47.681 57.8366 47.6724 57.8459 47.6655C57.8553 47.6587 57.8659 47.6538 57.8771 47.6511C57.8884 47.6484 57.9001 47.648 57.9115 47.6499L60.9577 48.0039C61.038 48.0304 61.1246 48.0304 61.2049 48.0039C61.265 48.0039 61.285 47.857 61.285 47.857L61.432 47.3426C62.0473 45.1328 62.3861 42.8553 62.4407 40.5621C62.434 37.9769 61.7326 33.7349 61.098 33.2339ZM40.1287 24.9236C40.1263 24.943 40.118 24.9611 40.1048 24.9755C40.0916 24.9899 40.0743 24.9998 40.0552 25.0038C38.42 25.2635 36.8396 25.7941 35.379 26.5737V25.9591C35.4001 25.0279 35.0962 24.1185 34.5196 23.3871C33.9429 22.6556 33.1296 22.1479 32.2192 21.9509C29.948 21.5368 28.0842 23.1066 27.6433 25.605C27.336 27.4354 25.2651 29.9539 22.446 30.829C20.7426 31.3634 18.2709 31.4503 15.3917 29.5731C15.3699 29.5629 15.3529 29.5447 15.3442 29.5223C15.3355 29.5 15.3358 29.4751 15.3449 29.4529C15.3552 29.4327 15.3715 29.4163 15.3917 29.4061C16.7139 29.1359 17.9027 28.4185 18.758 27.3746C19.6134 26.3307 20.083 25.024 20.0879 23.6744L20.148 21.0023C20.148 18.3552 21.1954 15.8155 23.0616 13.938C24.9278 12.0606 27.4611 10.9978 30.1083 10.982C30.4156 10.982 30.7295 10.982 31.0368 11.022C36.2608 11.503 40.0886 16.2393 40.0886 21.49L40.1287 24.9236ZM59.7753 45.9331L58.4727 45.7326L56.4686 45.4387L42.9344 43.4346C42.912 43.4314 42.8915 43.4201 42.8767 43.4029C42.862 43.3857 42.854 43.3638 42.8542 43.3411V39.1192C42.8548 39.0995 42.8616 39.0806 42.8736 39.065C42.8856 39.0494 42.9022 39.038 42.921 39.0323L56.5621 35.9193L58.4593 35.4851L59.8354 35.1712C60.2637 36.9208 60.4879 38.7141 60.5034 40.5154C60.4651 42.3407 60.2209 44.1559 59.7753 45.9264V45.9331Z" fill="#FDF8ED"/>
</svg>
