<svg width="88" height="51" viewBox="0 0 88 51" fill="none" xmlns="http://www.w3.org/2000/svg">
<g clip-path="url(#clip0_139_31)">
<path d="M1.5 23.5L5 20L14.5 15.5L24.5 14H35L42.5 4.5L47.5 1L55 2L67 8L80 19L85.5 29L87 36.5L80.5 45.5L74 49.5L64.5 48.5L54 43L38.5 49.5H23L8.5 46L1.5 40.5V23.5Z" fill="#7DA2AB"/>
<path d="M51.792 42.6137C47.3158 46.1135 38.529 48.5624 28.6702 48.5624C14.4346 48.5624 2.42049 43.4858 2.42049 37.4588V31.9239C2.56417 32.0804 2.71891 32.237 2.87365 32.3824C3.02755 32.5438 3.18989 32.6969 3.35996 32.8408C8.27832 37.2017 17.9714 39.9188 28.6702 39.9188C34.3863 39.9743 40.0751 39.1138 45.5252 37.3694C44.84 36.732 44.1768 36.0723 43.5579 35.4238C38.7129 36.7974 33.7017 37.4786 28.6702 37.4477C22.4333 37.5462 16.2343 36.4497 10.4004 34.2161C9.7483 33.9478 9.11831 33.6571 8.52148 33.3552C7.24148 32.7193 6.04576 31.9229 4.96257 30.9846C4.24712 30.4346 3.65264 29.74 3.2169 28.9449C2.78116 28.1499 2.51371 27.2718 2.43156 26.3666C2.43156 20.3396 14.4456 15.2631 28.6812 15.2631C30.3317 15.2631 31.9454 15.3302 33.5222 15.4644C33.5833 14.6319 33.7813 13.8156 34.108 13.0491C32.3617 12.9037 30.5381 12.8254 28.6812 12.8254C12.6109 12.8254 0.011055 18.763 0.011055 26.3666V37.4365C0.011055 45.0401 12.6109 50.9888 28.6812 50.9888C39.6674 50.9888 49.0178 48.2045 53.8367 44.0114C53.1294 43.5865 52.4662 43.1168 51.792 42.6137Z" fill="#FDF8ED"/>
<path d="M85.7342 26.3331C78.9098 14.2945 67.9331 5.22807 54.9088 0.872193C48.9515 -0.771525 44.3647 -0.0670541 41.9885 2.88493L35.0475 11.4725C34.6586 11.9581 34.3386 12.4963 34.097 13.0715C33.7703 13.838 33.5723 14.6543 33.5112 15.4868C32.9475 20.8205 36.7164 28.3458 43.5579 35.4462C44.1768 36.0947 44.84 36.7545 45.5252 37.3918C46.5642 38.3758 47.6473 39.3486 48.841 40.2879C50.0347 41.2272 50.8304 41.8869 51.8362 42.6137C52.5104 43.1169 53.1957 43.5865 53.8699 44.0338C60.5898 48.5065 67.2324 51 72.3055 51C75.4112 51 77.9312 50.0719 79.4896 48.1263L86.4195 39.5387C88.7516 36.5979 88.4974 31.9016 85.7342 26.3331ZM77.5775 46.5832C74.4054 50.5192 65.0108 48.4618 55.5278 42.2447C54.8757 41.8086 54.2125 41.3614 53.5604 40.8806C52.4552 40.109 51.3499 39.2816 50.322 38.3982C49.5373 37.7497 48.7857 37.0899 48.0452 36.419C47.3047 35.7481 46.73 35.2002 46.111 34.574C39.3358 27.7867 35.3348 20.3956 35.8543 15.7216C35.9412 14.8797 36.2254 14.0708 36.6832 13.3622C36.7532 13.2391 36.8347 13.1231 36.9264 13.0156L40.3969 8.72181C40.3969 8.83363 40.5185 9.83997 40.5516 10.0301C40.8078 11.5031 41.2344 12.9405 41.8226 14.3127C42.2095 15.2631 42.6847 16.2248 43.2042 17.2088C45.9463 21.9419 49.4288 26.194 53.5162 29.7994C54.2236 30.448 56.7656 32.5613 57.2961 32.9639C59.2517 34.4838 61.3006 35.8768 63.4303 37.1347C63.9387 37.4366 67.0997 39.125 68.1386 39.5946C68.835 39.9077 72.2281 41.2048 73.2007 41.4843C73.9081 41.6856 74.6154 41.8534 75.3007 41.9875C76.5692 42.2593 77.8614 42.4016 79.158 42.4125C79.3459 42.4125 80.9375 42.3006 81.0038 42.3006L77.5775 46.5832ZM84.5074 37.9845C83.8904 38.6494 83.1379 39.1709 82.302 39.5126C81.4662 39.8543 80.5669 40.0082 79.6664 39.9636C79.1768 39.9913 78.686 39.9913 78.1964 39.9636H78.108L77.5112 39.9077C76.6929 39.8109 75.8809 39.6653 75.0796 39.4716H74.9912L74.0296 39.2145C73.0016 38.9304 71.9905 38.587 71.0013 38.1857C70.0839 37.8279 69.1555 37.4142 68.205 36.9557C67.4866 36.6091 66.7682 36.2401 66.0497 35.8376L65.2982 35.4127L63.8392 34.5517C62.734 33.892 61.684 33.1763 60.6119 32.4048L59.5066 31.5661C58.814 31.0369 58.1177 30.489 57.4177 29.9224C56.5446 29.2068 55.7046 28.4688 54.8867 27.6861C54.7651 27.5631 53.2178 26.0759 52.5988 25.4497C52.4552 25.3043 51.5931 24.3986 51.3389 24.0967C51.0847 23.7948 50.7752 23.4817 50.4989 23.1575C50.2226 22.8332 49.0068 21.3572 48.6089 20.8316C48.0563 20.1048 46.0115 17.0187 45.5916 16.2695C45.47 16.0682 45.3705 15.8781 45.2711 15.6769L45.05 15.252C44.851 14.883 44.6742 14.5028 44.5084 14.1338C44.3426 13.7648 44.2763 13.6306 44.1768 13.3734C43.9889 12.915 43.8232 12.4565 43.6684 11.9981C43.58 11.7185 43.4916 11.4501 43.4142 11.1818C43.2823 10.6995 43.1753 10.2105 43.0937 9.71697C43.0032 9.1587 42.9551 8.59425 42.95 8.02855C42.904 6.76381 43.2948 5.52232 44.0553 4.51746C45.1053 3.20919 46.9621 2.54946 49.3826 2.54946C51.1037 2.57622 52.8136 2.8357 54.4667 3.321C66.8353 7.49038 77.2663 16.0983 83.789 27.5183C84.973 29.6796 85.657 32.0843 85.7895 34.5517C85.775 35.813 85.321 37.0286 84.5074 37.9845Z" fill="#FDF8ED"/>
</g>
<defs>
<clipPath id="clip0_139_31">
<rect width="88" height="51" fill="white"/>
</clipPath>
</defs>
</svg>
