<svg width="142" height="108" viewBox="0 0 142 108" fill="none" xmlns="http://www.w3.org/2000/svg">
<g clip-path="url(#clip0_139_66)">
<path d="M48.517 82.0324L69.4977 64.0237L66.8962 61.7759L46.3188 79.4317L40.8167 72.9758L60.3276 56.1956L58.5846 54.6926L39.3339 71.2246L33.8448 64.7687L52.055 49.0862L49.4535 46.8383L31.5946 62.168L28.3298 58.3258C28.0678 58.0174 27.7478 57.764 27.3882 57.58C27.0286 57.3961 26.6365 57.2851 26.2342 57.2536C25.8319 57.222 25.4274 57.2704 25.0437 57.3961C24.6601 57.5218 24.3048 57.7222 23.9984 57.986L18.028 63.1089C17.7203 63.3711 17.4676 63.6921 17.2845 64.0533C17.1014 64.4145 16.9916 64.8088 16.9614 65.213C16.9279 65.6155 16.9751 66.0207 17.1002 66.4045C17.2253 66.7884 17.4258 67.1431 17.6898 67.4477L25.8714 77.0794L13.3584 87.8219C11.3265 87.1693 9.14288 87.1683 7.11038 87.819C5.07789 88.4696 3.29731 89.7397 2.01566 91.453C0.734003 93.1663 0.0147996 95.2378 -0.0421681 97.3803C-0.0991358 99.5228 0.508959 101.63 1.69774 103.41C2.88652 105.189 4.59706 106.553 6.59209 107.312C8.58711 108.07 10.7677 108.187 12.8314 107.644C14.8951 107.101 16.7395 105.927 18.1089 104.284C19.4782 102.64 20.3046 100.609 20.4734 98.4729C20.5386 97.6753 20.5124 96.8729 20.3954 96.0813L32.9083 85.3519L41.0899 94.9836C41.3509 95.2934 41.6705 95.5481 42.0301 95.7331C42.3897 95.9181 42.7822 96.0296 43.185 96.0612C43.5878 96.0928 43.9928 96.0439 44.3767 95.9172C44.7605 95.7906 45.1156 95.5887 45.4213 95.3233L51.3916 90.2004C51.6993 89.9382 51.9521 89.6172 52.1352 89.256C52.3183 88.8948 52.4281 88.5006 52.4582 88.0963C52.4918 87.6938 52.4446 87.2887 52.3195 86.9048C52.1944 86.5209 51.9938 86.1662 51.7298 85.8616L48.517 82.0324ZM14.6982 102.942C14.0108 103.532 13.2144 103.98 12.3547 104.26C11.4949 104.541 10.5886 104.648 9.6875 104.577C8.78638 104.505 7.90815 104.256 7.10296 103.843C6.29777 103.43 5.5814 102.862 4.9948 102.171C4.11176 101.131 3.5555 99.8513 3.39637 98.4935C3.23723 97.1357 3.48236 95.761 4.10075 94.5431C4.71915 93.3253 5.68305 92.3191 6.87059 91.6516C8.05812 90.9841 9.41598 90.6853 10.7725 90.7931C12.129 90.9009 13.4232 91.4104 14.4916 92.2571C15.5599 93.1039 16.3544 94.2499 16.7746 95.5503C17.1947 96.8506 17.2217 98.247 16.8522 99.5627C16.4826 100.879 15.733 102.055 14.6982 102.942ZM19.3548 92.4874L18.0541 90.9453L16.7534 89.3902L28.0956 79.667L30.6971 82.7512L19.3548 92.4874ZM43.4572 92.4874L35.4838 83.1041L28.4469 74.8316L20.4734 65.5005L25.9625 60.7958L29.0192 64.3897L45.9286 84.2411L48.9853 87.835L43.4572 92.4874ZM122.801 1.00631C122.467 0.61506 122.037 0.317828 121.553 0.143725C121.07 -0.0303788 120.55 -0.075401 120.044 0.0130693L101.834 3.16264C100.662 3.36394 99.5655 3.87857 98.6599 4.65247L72.5024 27.1176L75.1038 29.3654L100.845 7.26622C101.281 6.87923 101.818 6.62534 102.393 6.53437L117.794 3.92063L81.6074 34.9458L83.3634 36.4487L119.328 5.64569L114.334 20.5049C114.148 21.052 113.82 21.5393 113.384 21.9163L89.9711 42.0291L92.5725 44.2638L115.595 24.5039C116.499 23.725 117.181 22.7195 117.572 21.5896L123.504 3.90757C123.662 3.41753 123.691 2.89434 123.586 2.38997C123.481 1.8856 123.246 1.41758 122.905 1.03243L122.801 1.00631Z" fill="#7DA2AB"/>
<path d="M141.974 96.8655C141.851 95.3142 141.381 93.8109 140.599 92.4677C139.817 91.1244 138.743 89.9759 137.457 89.1078C136.172 88.2396 134.708 87.6743 133.175 87.4539C131.642 87.2335 130.079 87.3638 128.603 87.835L116.077 77.0925L124.271 67.4608C124.797 66.8397 125.057 66.0344 124.994 65.2213C124.93 64.4081 124.549 63.6533 123.933 63.122L118.028 58.0513C117.475 57.571 116.768 57.3066 116.038 57.3064H115.79C115.388 57.3367 114.996 57.447 114.636 57.631C114.277 57.815 113.957 58.0689 113.696 58.3781L110.431 62.2203L91.0636 45.6099L88.4622 43.3621L81.9586 37.7687L80.2026 36.2658L73.699 30.6854L71.0976 28.4376L43.4442 4.71785C42.5433 3.93421 41.4454 3.41431 40.2704 3.21493L21.9562 0.0784455C21.7874 0.0654856 21.6178 0.0654856 21.4489 0.0784455C20.9786 0.0753925 20.5144 0.185771 20.0953 0.400318C19.6762 0.614866 19.3145 0.927327 19.0406 1.31144C18.7666 1.69555 18.5883 2.14009 18.5208 2.60776C18.4532 3.07543 18.4984 3.55255 18.6524 3.99906L24.5967 21.6811C24.9827 22.8135 25.6658 23.8204 26.5738 24.5954L51.0924 45.6491L53.6939 47.8839L60.1975 53.4642L61.9535 54.9671L68.4571 60.5736L71.0585 62.8084L93.548 82.1109L90.2832 85.9531C90.0211 86.2599 89.8219 86.6158 89.697 87.0002C89.5721 87.3846 89.5239 87.7899 89.5554 88.1931C89.5868 88.5962 89.6971 88.9891 89.8801 89.3493C90.063 89.7095 90.3149 90.0298 90.6214 90.2919L96.5917 95.4148C97.1446 95.8952 97.851 96.1596 98.5818 96.1598H98.829C99.231 96.1281 99.6229 96.0172 99.9822 95.8333C100.341 95.6494 100.661 95.3962 100.923 95.0881L109.105 85.4565L121.618 96.199C121.349 97.936 121.528 99.7133 122.138 101.361C122.749 103.008 123.77 104.471 125.104 105.608C126.953 107.215 129.318 108.097 131.763 108.092H132.583C133.928 107.987 135.241 107.618 136.444 107.004C137.647 106.389 138.718 105.543 139.595 104.512C140.472 103.481 141.139 102.287 141.556 100.997C141.973 99.7077 142.133 98.348 142.026 96.9961L141.974 96.8655ZM39.607 6.5344C40.1801 6.63076 40.7157 6.88399 41.1549 7.26625L108.168 64.7687L102.666 71.2377L24.2064 3.90759L39.607 6.5344ZM28.6809 21.9294C28.2377 21.5508 27.905 21.0585 27.7184 20.5049L22.7106 5.63266L101.196 72.9628L95.6942 79.4187L28.6809 21.9294ZM106.477 83.1564L98.5168 92.5397L93.0408 87.835L96.0975 84.2411L113.007 64.3897L116.064 60.7958L121.553 65.5005L113.566 74.8839L106.477 83.1564ZM123.907 90.9976L122.606 92.5397L111.264 82.8035L113.865 79.7193L125.208 89.4424L123.907 90.9976ZM136.914 102.184C135.708 103.501 134.041 104.298 132.263 104.407C130.485 104.516 128.734 103.93 127.377 102.771C126.02 101.612 125.162 99.9697 124.983 98.1892C124.804 96.4086 125.318 94.6276 126.417 93.2193C127.604 91.8242 129.294 90.9599 131.115 90.8165C132.936 90.6732 134.739 91.2625 136.127 92.4548C137.516 93.6471 138.376 95.3448 138.519 97.1743C138.661 99.0039 138.075 100.816 136.888 102.211L136.914 102.184Z" fill="#7DA2AB"/>
</g>
<defs>
<clipPath id="clip0_139_66">
<rect width="142" height="108" fill="white"/>
</clipPath>
</defs>
</svg>
