<svg width="28" height="28" viewBox="0 0 28 28" fill="none" xmlns="http://www.w3.org/2000/svg">
<path d="M20.7708 27.3983H20.7708C22.5282 27.397 24.2131 26.6984 25.4558 25.4558C26.6984 24.2131 27.397 22.5282 27.3983 20.7708V20.7708V7.58231V7.58227C27.397 5.82451 26.6985 4.13903 25.4561 2.89565C24.2136 1.65227 22.5286 0.952547 20.7709 0.95H20.7708L7.58231 0.95L7.58227 0.95C5.82367 0.951274 4.13747 1.65044 2.89395 2.89395C1.65044 4.13747 0.951274 5.82367 0.95 7.58227V7.58231L0.95 20.7708L0.95 20.7709C0.952547 22.5286 1.65227 24.2136 2.89565 25.4561C4.13903 26.6985 5.82451 27.397 7.58227 27.3983H7.58231H20.7708ZM3.60595 3.60595C4.66065 2.55125 6.09078 1.95817 7.58235 1.95692L20.7707 1.95692C22.2615 1.95942 23.6904 2.55305 24.744 3.60762C25.7977 4.66219 26.3902 6.09159 26.3914 7.58235V20.7707C26.3902 22.2611 25.7976 23.69 24.7438 24.7438C23.69 25.7976 22.2611 26.3902 20.7707 26.3914H7.58235C6.09159 26.3902 4.66219 25.7977 3.60762 24.744C2.55305 23.6904 1.95942 22.2615 1.95692 20.7707L1.95692 7.58235C1.95817 6.09078 2.55125 4.66065 3.60595 3.60595Z" fill="#FDF8ED" stroke="#FDF8ED" stroke-width="0.1"/>
<path d="M21.9034 8.78881L22.3527 8.67464L22.386 8.66619L22.4058 8.69417L22.7781 9.21923L22.7975 9.24654L22.7796 9.27485L22.6078 9.54693L22.606 9.54973L22.6059 9.54967C22.1828 10.1306 21.6742 10.6441 21.0976 11.0729V11.0729V11.0731V11.0732V11.0734V11.0736V11.0738V11.0739V11.0741V11.0743V11.0745V11.0746V11.0748V11.075V11.0752V11.0754V11.0755V11.0757V11.0759V11.0761V11.0763V11.0765V11.0766V11.0768V11.077V11.0772V11.0774V11.0776V11.0778V11.078V11.0782V11.0784V11.0785V11.0787V11.0789V11.0791V11.0793V11.0795V11.0797V11.0799V11.0801V11.0803V11.0805V11.0807V11.0809V11.0811V11.0813V11.0815V11.0818V11.082V11.0822V11.0824V11.0826V11.0828V11.083V11.0832V11.0834V11.0837V11.0839V11.0841V11.0843V11.0845V11.0847V11.085V11.0852V11.0854V11.0856V11.0859C21.0976 11.1837 21.0903 11.2798 21.0819 11.3743C21.0802 11.3931 21.0785 11.4118 21.0768 11.4304C21.0699 11.5061 21.0631 11.5807 21.0594 11.6562L21.9034 8.78881ZM21.9034 8.78881C22.0432 8.58426 22.1564 8.36256 22.2403 8.12902L22.2406 8.12793L22.3361 7.84154L22.3459 7.81203L22.3238 7.79017L21.9085 7.37967L21.8863 7.35772L21.8569 7.36803L21.0944 7.63492L21.0938 7.63512L19.8087 8.04766L19.7841 8.02916L19.7841 8.02914L19.7828 8.02827C18.4856 7.11543 17.3927 6.90587 16.5402 6.99257C15.6887 7.07917 15.0832 7.46068 14.7587 7.71983L14.7583 7.72011C14.2542 8.13007 13.8615 8.66039 13.6165 9.26214C13.3792 9.84466 13.2877 10.476 13.3494 11.1013C11.1696 10.8651 9.24771 9.80964 7.49516 7.88277L7.49517 7.88277L7.49444 7.882L7.31783 7.69585L7.29926 7.67627L7.2727 7.68105L6.79538 7.76697L6.76937 7.77165L6.75859 7.79578L6.65843 8.01994C6.65842 8.01997 6.6584 8.02 6.65839 8.02003C6.03971 9.38969 6.05365 10.6548 6.69049 11.7412L6.28922 11.9533L6.26686 11.9652L6.26314 11.9902L6.2298 12.214C6.04238 13.311 6.56849 14.3833 7.60165 15.1802L21.9034 8.78881ZM6.77082 11.778H6.72786H6.77082ZM6.77082 11.778C6.76064 11.7613 6.75062 11.7447 6.74074 11.728L6.77082 11.778ZM20.6837 10.1271C20.6172 10.1825 20.5483 10.2372 20.4776 10.2921C20.4776 10.2922 20.4776 10.2922 20.4775 10.2922L20.6837 10.1271ZM20.6837 10.1271L20.3488 10.213L20.3136 10.2221L20.2942 10.1914L19.9314 9.61858L19.9116 9.5874L19.9356 9.55934L20.16 9.29682L20.161 9.29561L20.161 9.29562L20.3565 9.08111L20.3567 9.08083L20.5145 8.90491L20.1632 9.03239C20.0004 9.09649 19.8226 9.11251 19.6509 9.07854C19.4803 9.04477 19.3229 8.96304 19.1971 8.84297C17.7474 7.82555 16.4094 7.71768 15.4081 8.51402L15.4077 8.51432C14.9736 8.8528 14.6519 9.31448 14.4846 9.83891C14.3176 10.3624 14.3123 10.9242 14.4694 11.4507L14.5638 11.6725L14.5743 11.6972L14.5596 11.7196L14.2827 12.1396L14.2679 12.1621H14.241H13.9784H13.9768L13.9768 12.1621C11.4732 12.0813 9.28037 11.0925 7.32117 9.14837C7.1653 9.7357 7.17347 10.2721 7.342 10.7654C7.51845 11.2819 7.87214 11.7554 8.40614 12.1926C8.40619 12.1926 8.40625 12.1927 8.40631 12.1927L8.6494 12.3882L8.67588 12.4095L8.66583 12.4419L8.47968 13.0433L8.46992 13.0749L8.43711 13.0783L8.1173 13.1117L8.11417 13.112L8.11417 13.1119C7.8295 13.1237 7.54505 13.0881 7.2724 13.0068C7.46487 13.7975 8.22825 14.5477 9.43784 15.0105L9.43855 15.0108L9.43854 15.0108L9.70107 15.1158L9.72862 15.1268L9.73215 15.1563L9.79898 15.7147L9.80249 15.7441L9.77839 15.7614L9.5445 15.9284L9.54088 15.931L9.54078 15.9308C9.28814 16.0793 9.00166 16.1592 8.70971 16.1633C8.87894 16.4205 9.09195 16.6463 9.33926 16.8303C9.83826 17.1729 10.4221 17.3712 11.0265 17.4034L11.0299 17.4036L11.0299 17.4037L11.3402 17.4419L11.3734 17.446L11.3823 17.4784L11.5493 18.0893L11.5582 18.1216L11.5317 18.1421L11.2787 18.3378L11.2783 18.3381C10.1748 19.1747 8.86248 19.6895 7.48672 19.8272C8.38594 20.2767 9.63454 20.3836 10.6909 20.3729C11.2472 20.3673 11.7476 20.3291 12.1113 20.2923C12.2931 20.2738 12.4408 20.2558 12.5441 20.2424C12.5957 20.2356 12.6363 20.2301 12.6647 20.2262L12.6981 20.2216L12.7081 20.2203C12.7087 20.2203 12.7102 20.2201 12.7122 20.2199C14.4713 19.9153 16.0974 19.0865 17.3775 17.8419C18.658 16.597 19.5325 14.9943 19.8863 13.2438C19.9792 12.6968 20.0395 12.1447 20.0668 11.5906C20.0669 11.4512 20.0795 11.3083 20.0918 11.169C20.0965 11.1158 20.1012 11.0631 20.1051 11.0114L20.6837 10.1271ZM10.5178 21.384H10.5179L5.74073 19.6236L5.78276 19.5966L5.74078 19.6237L5.74075 19.6237C6.20791 20.3487 6.98306 20.7882 7.84779 21.0466C8.71281 21.3051 9.67281 21.384 10.5178 21.384ZM9.6534 18.1227C9.6748 18.1303 9.69626 18.1377 9.71781 18.145C9.73791 18.1341 9.75797 18.1231 9.77797 18.1121C9.7563 18.1051 9.7347 18.098 9.71318 18.0906C9.69331 18.1014 9.67338 18.1121 9.6534 18.1227ZM7.67297 15.1718C7.65962 15.1617 7.64637 15.1516 7.63319 15.1414L7.64142 15.2106L7.67297 15.1718Z" fill="#FDF8ED" stroke="#FDF8ED" stroke-width="0.1"/>
</svg>
