<?xml version="1.0" encoding="utf-8"?>
<!-- Generator: Adobe Illustrator 26.5.0, SVG Export Plug-In . SVG Version: 6.00 Build 0)  -->
<svg version="1.1" id="Layer_1" xmlns="http://www.w3.org/2000/svg" xmlns:xlink="http://www.w3.org/1999/xlink" x="0px" y="0px"
	 viewBox="0 0 28 28" style="enable-background:new 0 0 28 28;" xml:space="preserve">
<style type="text/css">
	.st0{fill:#FDF8ED;stroke:#FDF8ED;stroke-width:0.1;}
</style>
<g>
	<path class="st0" d="M10.8,22.9c-1,0-2-0.6-3.1-1.7c-1-1-1.4-2.2-1.1-3.1c0.2-0.7,0.7-1.2,1.5-1.7c-1.4-0.3-2.7-1.2-3.1-2.9
		c-0.2-0.8-0.5-5-0.5-5.6c0-1.1,0.3-1.8,1-2.1c1-0.5,2.6,0.2,3.7,1c1.9,1.4,3.9,4.2,5,6c1-1.8,3.1-4.6,5-6c1.1-0.8,2.6-1.5,3.7-1
		c0.7,0.3,1,1,1,2.1c0,0.5-0.3,4.8-0.5,5.6c-0.5,1.7-1.7,2.6-3.1,2.9c0.8,0.4,1.3,1,1.5,1.7c0.3,1-0.1,2.1-1.1,3.1
		c-1.3,1.3-2.5,1.8-3.6,1.6c-1.5-0.3-2.4-2.1-2.9-3.3c-0.5,1.2-1.4,2.9-2.9,3.3C11.2,22.9,11,22.9,10.8,22.9z M14.6,18.3
		c0,0.1,0.1,0.2,0.1,0.3c0.3,0.8,1.1,3.2,2.6,3.5c0.8,0.2,1.7-0.3,2.8-1.4c0.6-0.6,1.2-1.4,0.9-2.3c-0.3-0.9-1.5-1.6-3.3-1.9
		l0.1-0.8c0,0,0,0,0,0c1.9,0.3,4.1-0.1,4.7-2.3c0.2-0.6,0.5-4.8,0.5-5.3c0-0.7-0.2-1.2-0.5-1.4c-0.6-0.3-1.7,0.1-2.8,0.9
		c-2.1,1.6-4.3,4.7-5.1,6.4l-0.4-0.2L13.9,14c-0.8-1.7-3-4.9-5.1-6.4C7.6,6.7,6.5,6.3,5.9,6.6C5.6,6.8,5.4,7.3,5.4,8
		c0,0.5,0.3,4.7,0.5,5.3c0.6,2.2,2.8,2.6,4.7,2.3c0,0,0,0,0,0c0,0,0,0,0,0l0.1,0.8c0,0,0,0,0,0c-1.8,0.3-3,1-3.3,1.9
		c-0.3,0.9,0.3,1.7,0.9,2.3c1.1,1.1,2,1.5,2.8,1.4c1.5-0.3,2.3-2.7,2.6-3.5c0.1-0.3,0.2-0.6,0.5-0.6c0.1,0,0.1,0,0.2,0l0.2,0
		L14.6,18.3z M13.8,18.4h0.4H13.8z"/>
</g>
<path class="st0" d="M20.6,27.2L20.6,27.2c1.8,0,3.4-0.7,4.7-1.9c1.2-1.2,1.9-2.9,1.9-4.7l0,0V7.4v0c0-1.8-0.7-3.4-1.9-4.7
	c-1.2-1.2-2.9-1.9-4.7-1.9h0H7.4h0C5.6,0.8,4,1.5,2.7,2.7C1.5,4,0.8,5.6,0.8,7.4v0v13.2v0c0,1.8,0.7,3.4,1.9,4.7
	c1.2,1.2,2.9,1.9,4.7,1.9h0H20.6z M3.4,3.4c1.1-1.1,2.5-1.6,4-1.6h13.2c1.5,0,2.9,0.6,4,1.7c1.1,1.1,1.6,2.5,1.6,4v13.2
	c0,1.5-0.6,2.9-1.6,4c-1.1,1.1-2.5,1.6-4,1.6H7.4c-1.5,0-2.9-0.6-4-1.6c-1.1-1.1-1.6-2.5-1.7-4V7.4C1.8,5.9,2.4,4.5,3.4,3.4z"/>
</svg>
