<svg width="28" height="28" viewBox="0 0 28 28" fill="none" xmlns="http://www.w3.org/2000/svg">
<path d="M20.7708 27.3983H20.7708C22.5282 27.397 24.2131 26.6984 25.4558 25.4558C26.6984 24.2131 27.397 22.5282 27.3983 20.7708V20.7708V7.58231V7.58227C27.397 5.82451 26.6985 4.13903 25.4561 2.89565C24.2136 1.65227 22.5286 0.952547 20.7709 0.95H20.7708L7.58231 0.95L7.58227 0.95C5.82367 0.951274 4.13747 1.65044 2.89395 2.89395C1.65044 4.13747 0.951274 5.82367 0.95 7.58227V7.58231L0.95 20.7708L0.95 20.7709C0.952547 22.5286 1.65227 24.2136 2.89565 25.4561C4.13903 26.6985 5.82451 27.397 7.58227 27.3983H7.58231H20.7708ZM3.60595 3.60595C4.66065 2.55125 6.09078 1.95817 7.58235 1.95692L20.7707 1.95692C22.2615 1.95942 23.6904 2.55305 24.744 3.60762C25.7977 4.66219 26.3902 6.09159 26.3914 7.58235V20.7707C26.3902 22.2611 25.7976 23.69 24.7438 24.7438C23.69 25.7976 22.2611 26.3902 20.7707 26.3914H7.58235C6.09159 26.3902 4.66219 25.7977 3.60762 24.744C2.55305 23.6904 1.95942 22.2615 1.95692 20.7707L1.95692 7.58235C1.95817 6.09078 2.55125 4.66065 3.60595 3.60595Z" fill="#FDF8ED" stroke="#FDF8ED" stroke-width="0.1"/>
<path d="M14.1742 21.6466H14.1742C16.075 21.6453 17.8977 20.89 19.2422 19.5463C20.5868 18.2027 21.3433 16.3806 21.3459 14.4797V14.4797C21.3468 13.0611 20.927 11.674 20.1395 10.494C19.3521 9.31401 18.2324 8.39405 16.922 7.85051C15.6116 7.30696 14.1695 7.16425 12.778 7.44043C11.3865 7.71661 10.1082 8.39926 9.10473 9.40205C8.10127 10.4048 7.41776 11.6827 7.14065 13.074C6.86354 14.4653 7.00528 15.9075 7.54794 17.2183C8.09061 18.529 9.00982 19.6494 10.1893 20.4376C11.3688 21.2258 12.7555 21.6466 14.1742 21.6466ZM10.7545 9.35225C11.7667 8.6759 12.9568 8.3149 14.1742 8.3149C14.9825 8.3149 15.7829 8.47411 16.5297 8.78344C17.2765 9.09277 17.955 9.54616 18.5266 10.1177C19.0981 10.6893 19.5515 11.3678 19.8609 12.1146C20.1702 12.8614 20.3294 13.6618 20.3294 14.4701C20.3294 15.6875 19.9684 16.8776 19.2921 17.8898C18.6157 18.902 17.6544 19.6909 16.5297 20.1568C15.405 20.6227 14.1673 20.7446 12.9734 20.5071C11.7794 20.2696 10.6826 19.6833 9.82178 18.8225C8.96095 17.9617 8.37473 16.8649 8.13723 15.6709C7.89973 14.477 8.02162 13.2393 8.48749 12.1146C8.95337 10.9899 9.7423 10.0286 10.7545 9.35225Z" fill="#FDF8ED" stroke="#FDF8ED" stroke-width="0.1"/>
<path d="M21.7159 5.49387L21.7162 5.49387C21.819 5.49328 21.921 5.51303 22.0162 5.55199C22.1115 5.59095 22.198 5.64835 22.271 5.72089C22.344 5.79343 22.4019 5.87968 22.4414 5.97467C22.4809 6.06967 22.5012 6.17153 22.5012 6.27441L22.5012 6.2747C22.5021 6.43021 22.4568 6.58248 22.371 6.71221C22.2853 6.84195 22.163 6.9433 22.0195 7.00343C21.8761 7.06356 21.7181 7.07975 21.5654 7.04996C21.4128 7.02017 21.2725 6.94573 21.1622 6.83608C21.0519 6.72643 20.9767 6.58651 20.946 6.43405C20.9153 6.28159 20.9306 6.12346 20.9899 5.9797C21.0492 5.83594 21.1499 5.71303 21.2791 5.62654C21.4084 5.54005 21.5604 5.49387 21.7159 5.49387ZM20.7175 7.76857C21.013 7.96603 21.3605 8.07142 21.7159 8.07142C21.9519 8.07142 22.1855 8.02494 22.4036 7.93463C22.6216 7.84432 22.8197 7.71196 22.9866 7.54509C23.1534 7.37822 23.2858 7.18012 23.3761 6.9621C23.4664 6.74408 23.5129 6.5104 23.5129 6.27441C23.5129 5.919 23.4075 5.57157 23.21 5.27605C23.0126 4.98053 22.7319 4.75021 22.4036 4.61419C22.0752 4.47818 21.7139 4.4426 21.3653 4.51193C21.0167 4.58127 20.6965 4.75242 20.4452 5.00374C20.1939 5.25505 20.0227 5.57525 19.9534 5.92383C19.8841 6.27242 19.9197 6.63374 20.0557 6.9621C20.1917 7.29046 20.422 7.57111 20.7175 7.76857Z" fill="#FDF8ED" stroke="#FDF8ED" stroke-width="0.1"/>
</svg>
