<svg width="28" height="28" viewBox="0 0 28 28" fill="none" xmlns="http://www.w3.org/2000/svg">
<path d="M20.7708 27.3983H20.7708C22.5282 27.397 24.2131 26.6984 25.4558 25.4558C26.6984 24.2131 27.397 22.5282 27.3983 20.7708V20.7708V7.58231V7.58227C27.397 5.82451 26.6985 4.13903 25.4561 2.89565C24.2136 1.65227 22.5286 0.952547 20.7709 0.95H20.7708L7.58231 0.95L7.58227 0.95C5.82367 0.951274 4.13747 1.65044 2.89395 2.89395C1.65044 4.13747 0.951274 5.82367 0.95 7.58227V7.58231L0.95 20.7708L0.95 20.7709C0.952547 22.5286 1.65227 24.2136 2.89565 25.4561C4.13903 26.6985 5.82451 27.397 7.58227 27.3983H7.58231H20.7708ZM3.60595 3.60595C4.66065 2.55125 6.09078 1.95817 7.58235 1.95692L20.7707 1.95692C22.2615 1.95942 23.6904 2.55305 24.744 3.60762C25.7977 4.66219 26.3902 6.09159 26.3914 7.58235V20.7707C26.3902 22.2611 25.7976 23.69 24.7438 24.7438C23.69 25.7976 22.2611 26.3902 20.7707 26.3914H7.58235C6.09159 26.3902 4.66219 25.7977 3.60762 24.744C2.55305 23.6904 1.95942 22.2615 1.95692 20.7707L1.95692 7.58235C1.95817 6.09078 2.55125 4.66065 3.60595 3.60595Z" fill="#FDF8ED" stroke="#FDF8ED" stroke-width="0.1"/>
<path d="M19.3723 22.267H19.3719C19.1937 22.2657 19.0232 22.1939 18.8977 22.0674C18.7722 21.9409 18.7017 21.7699 18.7018 21.5917V15.9688C18.7018 15.4771 18.6069 15.1341 18.4118 14.9137C18.218 14.6947 17.9161 14.5869 17.4773 14.5869H17.4741L17.4741 14.5868C17.3179 14.5768 17.1612 14.5992 17.0141 14.6527C16.8679 14.7059 16.7343 14.7885 16.6214 14.8955C16.3822 15.1891 16.2519 15.5565 16.2528 15.9353L16.2528 15.9354L16.2528 21.5917C16.2528 21.7699 16.1824 21.9409 16.0569 22.0674C15.9313 22.1939 15.7609 22.2657 15.5827 22.267L15.5823 22.267L12.8902 22.267C12.7111 22.267 12.5393 22.1959 12.4127 22.0692C12.2861 21.9426 12.2149 21.7708 12.2149 21.5917V11.8068V11.8066H12.2649C12.2643 11.7243 12.28 11.6427 12.3112 11.5665C12.3424 11.4904 12.3884 11.4212 12.4466 11.363C12.5048 11.3048 12.574 11.2588 12.6502 11.2276C12.7263 11.1964 12.8079 11.1806 12.8902 11.1813L19.3723 22.267ZM19.3723 22.267H22.1307H19.3723ZM15.5585 11.1313H12.8904L22.8065 21.606V21.6057V21.5392V21.5232V21.5072V21.4912V21.4753V21.4593V21.4434V21.4275V21.4116V21.3958V21.3799V21.3641V21.3483V21.3325V21.3167V21.3009V21.2852V21.2695V21.2538V21.2381V21.2225V21.2068V21.1912V21.1756V21.16V21.1445V21.1289V21.1134V21.0979V21.0824V21.0669V21.0515V21.036V21.0206V21.0052V20.9898V20.9745V20.9592V20.9438V20.9285V20.9132V20.898V20.8827V20.8675V20.8523V20.8371V20.822V20.8068V20.7917V20.7766V20.7615V20.7464V20.7313V20.7163V20.7013V20.6863V20.6713V20.6564V20.6414V20.6265V20.6116V20.5967V20.5818V20.567V20.5522V20.5374V20.5226V20.5078V20.493V20.4783V20.4636V20.4489V20.4342V20.4196V20.4049V20.3903V20.3757V20.3611V20.3466V20.332V20.3175V20.303V20.2885V20.274V20.2596V20.2452V20.2308V20.2164V20.202V20.1876V20.1733V20.159V20.1447V20.1304V20.1162V20.1019V20.0877V20.0735V20.0593V20.0452V20.031V20.0169V20.0028V19.9887V19.9746V19.9606V19.9466V19.9326V19.9186V19.9046V19.8906V19.8767V19.8628V19.8489V19.835V19.8212V19.8073V19.7935V19.7797V19.7659V19.7522V19.7384V19.7247V19.711V19.6973V19.6836V19.67V19.6564V19.6427V19.6292V19.6156V19.602V19.5885V19.575V19.5615V19.548V19.5346V19.5211V19.5077V19.4943V19.4809V19.4676V19.4542V19.4409V19.4276V19.4143V19.4011V19.3878V19.3746V19.3614V19.3482V19.335V19.3219V19.3087V19.2956V19.2825V19.2695V19.2564V19.2434V19.2304V19.2174V19.2044V19.1914V19.1785V19.1656V19.1527V19.1398V19.1269V19.1141V19.1013V19.0885V19.0757V19.0629V19.0502V19.0374V19.0247V19.012V18.9994V18.9867V18.9741V18.9615V18.9489V18.9363V18.9238V18.9112V18.8987V18.8862V18.8737V18.8613V18.8488V18.8364V18.824V18.8116V18.7993V18.7869V18.7746V18.7623V18.75V18.7378V18.7255V18.7133V18.7011V18.6889V18.6767V18.6646V18.6525V18.6403V18.6283V18.6162V18.6041V18.5921V18.5801V18.5681V18.5561V18.5442V18.5322V18.5203V18.5084V18.4965V18.4847V18.4728V18.461V18.4492V18.4374V18.4257V18.4139V18.4022V18.3905V18.3788V18.3672V18.3555V18.3439V18.3323V18.3207V18.3091V18.2976V18.286V18.2745V18.263V18.2516V18.2401V18.2287V18.2173V18.2059V18.1945V18.1831V18.1718V18.1605V18.1492V18.1379V18.1267V18.1154V18.1042V18.093V18.0818V18.0707V18.0595V18.0484V18.0373V18.0262V18.0152V18.0041V17.9931V17.9821V17.9711V17.9601V17.9492V17.9383V17.9273V17.9165V17.9056V17.8947V17.8839V17.8731V17.8623V17.8515V17.8408V17.8301V17.8193V17.8087V17.798V17.7873V17.7767V17.7661V17.7555V17.7449V17.7343V17.7238V17.7133V17.7028V17.6923V17.6819V17.6714V17.661V17.6506V17.6402V17.6299V17.6195V17.6092V17.5989V17.5886V17.5783V17.5681V17.5579V17.5477V17.5375V17.5273V17.5172V17.507V17.4969V17.4869V17.4768V17.4667V17.4567V17.4467V17.4367V17.4267V17.4168V17.4069V17.3969V17.3871V17.3772V17.3673V17.3575V17.3477V17.3379V17.3281V17.3184V17.3086V17.2989V17.2892V17.2795V17.2699V17.2603V17.2506V17.241V17.2315V17.2219V17.2124V17.2028V17.1934V17.1839V17.1744V17.165V17.1556V17.1462V17.1368V17.1274V17.1181V17.1087V17.0994V17.0902V17.0809V17.0717V17.0624V17.0532V17.044V17.0349V17.0257V17.0166V17.0075V16.9984V16.9894V16.9803V16.9713V16.9623V16.9533V16.9443V16.9354V16.9265V16.9175V16.9087V16.8998V16.8909V16.8821V16.8733V16.8645V16.8557V16.847V16.8383V16.8296V16.8209V16.8122V16.8035V16.7949V16.7863V16.7777V16.7691V16.7606V16.7521V16.7435V16.735V16.7266V16.7181V16.7097V16.7013V16.6929V16.6845V16.6762V16.6678V16.6595V16.6512V16.6429V16.6347V16.6264V16.6182V16.61V16.6019V16.5937V16.5856V16.5775V16.5694V16.5613V16.5532V16.5452V16.5372V16.5292V16.5212V16.5132V16.5053V16.4974V16.4895V16.4816V16.4737V16.4659V16.4581V16.4503V16.4425V16.4348V16.427V16.4193V16.4116V16.4039V16.3963V16.3886V16.381V16.3734V16.3658V16.3583V16.3507V16.3432V16.3357V16.3282V16.3208V16.3133V16.3059V16.2985V16.2911V16.2838V16.2764V16.2691V16.2618V16.2545V16.2473V16.24V16.2328V16.2256V16.2184V16.2113V16.2041V16.197V16.1899V16.1828V16.1758V16.1687V16.1617V16.1547V16.1477V16.1407V16.1338V16.1269V16.12V16.1131V16.1062V16.0994V16.0926V16.0858V16.079V16.0722V16.0655V16.0588V16.0521V16.0454V16.0387V16.0321V16.0255V16.0189V16.0123V16.0057V15.9992V15.9927V15.9862V15.9797V15.9732V15.9668V15.9604V15.954V15.9476V15.9412V15.9349V15.9286V15.9223V15.916V15.9097V15.9035V15.8973V15.8911V15.8849V15.8787V15.8726V15.8665V15.8604V15.8548C22.8146 15.4627 22.7905 15.0706 22.7344 14.6825L22.7343 14.6821C22.494 13.0912 21.8051 11.9542 20.6861 11.3051C19.6578 10.7084 18.486 10.6868 17.1201 11.2255L17.1196 11.2256C16.8009 11.3551 16.5017 11.5278 16.2303 11.7387C16.2148 11.5846 16.1465 11.4396 16.036 11.3291C15.9093 11.2024 15.7376 11.1313 15.5585 11.1313ZM21.7996 21.2487V21.2601H19.7089L19.7325 15.9691V15.9688C19.7325 14.9444 19.385 14.3468 18.9259 14.0074C18.47 13.6704 17.9127 13.5944 17.5023 13.5943C17.2102 13.5806 16.9185 13.6283 16.646 13.7343C16.373 13.8404 16.1254 14.0027 15.9191 14.2105L15.9191 14.2104L15.9169 14.2129C15.4941 14.6997 15.264 15.3243 15.2698 15.9691V21.2601H13.2218V12.1382H15.2173L15.2173 12.8662L15.2173 12.8667C15.2185 12.9839 15.2566 13.0977 15.3263 13.1919C15.3958 13.2858 15.493 13.3554 15.6042 13.3908C15.715 13.4319 15.8364 13.4345 15.9489 13.3983C16.0616 13.362 16.1587 13.2889 16.2248 13.1908C16.5472 12.7452 16.9854 12.3964 17.4918 12.182C18.5801 11.7326 19.4314 11.7407 20.1775 12.179L20.1778 12.1792C21.0293 12.6705 21.539 13.5326 21.738 14.8209C21.7829 15.1553 21.8035 15.4925 21.7996 15.8298V15.8304V15.8364V15.8424V15.8484V15.8544V15.8604V15.8665V15.8726V15.8787V15.8848V15.8909V15.8971V15.9033V15.9094V15.9157V15.9219V15.9281V15.9344V15.9407V15.947V15.9533V15.9597V15.966V15.9724V15.9788V15.9852V15.9917V15.9981V16.0046V16.0111V16.0176V16.0241V16.0307V16.0372V16.0438V16.0504V16.057V16.0637V16.0703V16.077V16.0837V16.0904V16.0972V16.1039V16.1107V16.1175V16.1243V16.1311V16.138V16.1449V16.1517V16.1586V16.1656V16.1725V16.1795V16.1864V16.1934V16.2005V16.2075V16.2146V16.2216V16.2287V16.2358V16.243V16.2501V16.2573V16.2645V16.2717V16.2789V16.2861V16.2934V16.3007V16.308V16.3153V16.3226V16.33V16.3373V16.3447V16.3521V16.3596V16.367V16.3745V16.3819V16.3895V16.397V16.4045V16.4121V16.4196V16.4272V16.4349V16.4425V16.4501V16.4578V16.4655V16.4732V16.4809V16.4887V16.4964V16.5042V16.512V16.5198V16.5277V16.5355V16.5434V16.5513V16.5592V16.5672V16.5751V16.5831V16.5911V16.5991V16.6071V16.6151V16.6232V16.6313V16.6394V16.6475V16.6556V16.6638V16.672V16.6802V16.6884V16.6966V16.7048V16.7131V16.7214V16.7297V16.738V16.7464V16.7547V16.7631V16.7715V16.7799V16.7883V16.7968V16.8053V16.8138V16.8223V16.8308V16.8393V16.8479V16.8565V16.8651V16.8737V16.8823V16.891V16.8997V16.9084V16.9171V16.9258V16.9346V16.9433V16.9521V16.9609V16.9697V16.9786V16.9875V16.9963V17.0052V17.0141V17.0231V17.032V17.041V17.05V17.059V17.068V17.0771V17.0862V17.0952V17.1043V17.1135V17.1226V17.1318V17.1409V17.1501V17.1593V17.1686V17.1778V17.1871V17.1964V17.2057V17.215V17.2244V17.2337V17.2431V17.2525V17.2619V17.2713V17.2808V17.2903V17.2998V17.3093V17.3188V17.3284V17.3379V17.3475V17.3571V17.3667V17.3764V17.386V17.3957V17.4054V17.4151V17.4248V17.4346V17.4444V17.4541V17.4639V17.4738V17.4836V17.4935V17.5034V17.5133V17.5232V17.5331V17.5431V17.553V17.563V17.573V17.5831V17.5931V17.6032V17.6133V17.6234V17.6335V17.6436V17.6538V17.6639V17.6741V17.6843V17.6946V17.7048V17.7151V17.7254V17.7357V17.746V17.7563V17.7667V17.7771V17.7875V17.7979V17.8083V17.8188V17.8293V17.8397V17.8502V17.8608V17.8713V17.8819V17.8925V17.9031V17.9137V17.9243V17.935V17.9456V17.9563V17.967V17.9778V17.9885V17.9993V18.0101V18.0209V18.0317V18.0425V18.0534V18.0643V18.0752V18.0861V18.097V18.1079V18.1189V18.1299V18.1409V18.1519V18.163V18.174V18.1851V18.1962V18.2073V18.2184V18.2296V18.2408V18.2519V18.2632V18.2744V18.2856V18.2969V18.3082V18.3195V18.3308V18.3421V18.3535V18.3648V18.3762V18.3876V18.3991V18.4105V18.422V18.4335V18.445V18.4565V18.468V18.4796V18.4911V18.5027V18.5143V18.526V18.5376V18.5493V18.561V18.5727V18.5844V18.5961V18.6079V18.6196V18.6314V18.6433V18.6551V18.6669V18.6788V18.6907V18.7026V18.7145V18.7264V18.7384V18.7504V18.7624V18.7744V18.7864V18.7985V18.8105V18.8226V18.8347V18.8469V18.859V18.8712V18.8833V18.8955V18.9077V18.92V18.9322V18.9445V18.9568V18.9691V18.9814V18.9938V19.0061V19.0185V19.0309V19.0433V19.0557V19.0682V19.0807V19.0931V19.1057V19.1182V19.1307V19.1433V19.1559V19.1685V19.1811V19.1937V19.2064V19.219V19.2317V19.2444V19.2572V19.2699V19.2827V19.2954V19.3082V19.3211V19.3339V19.3467V19.3596V19.3725V19.3854V19.3983V19.4113V19.4242V19.4372V19.4502V19.4632V19.4763V19.4893V19.5024V19.5155V19.5286V19.5417V19.5549V19.568V19.5812V19.5944V19.6076V19.6209V19.6341V19.6474V19.6607V19.674V19.6873V19.7007V19.714V19.7274V19.7408V19.7542V19.7677V19.7811V19.7946V19.8081V19.8216V19.8351V19.8487V19.8622V19.8758V19.8894V19.903V19.9167V19.9303V19.944V19.9577V19.9714V19.9851V19.9989V20.0126V20.0264V20.0402V20.054V20.0679V20.0817V20.0956V20.1095V20.1234V20.1373V20.1513V20.1652V20.1792V20.1932V20.2072V20.2213V20.2353V20.2494V20.2635V20.2776V20.2917V20.3058V20.32V20.3342V20.3484V20.3626V20.3768V20.3911V20.4054V20.4197V20.434V20.4483V20.4626V20.477V20.4914V20.5058V20.5202V20.5346V20.5491V20.5635V20.578V20.5925V20.6071V20.6216V20.6362V20.6507V20.6653V20.68V20.6946V20.7092V20.7239V20.7386V20.7533V20.768V20.7828V20.7975V20.8123V20.8271V20.8419V20.8567V20.8716V20.8865V20.9014V20.9163V20.9312V20.9461V20.9611V20.9761V20.991V21.0061V21.0211V21.0361V21.0512V21.0663V21.0814V21.0965V21.1117V21.1268V21.142V21.1572V21.1724V21.1876V21.2029V21.2181V21.2334V21.2487Z" fill="#FDF8ED" stroke="#FDF8ED" stroke-width="0.1"/>
<path d="M7.59669 22.2718H7.59661C7.41751 22.2718 7.24575 22.2007 7.1191 22.0741C6.99246 21.9474 6.92131 21.7756 6.92131 21.5965V11.7875C6.92131 11.6084 6.99246 11.4367 7.1191 11.31C7.24575 11.1834 7.41751 11.1122 7.59661 11.1122H10.4176H10.4191L10.4191 11.1123C10.5946 11.1176 10.7611 11.1911 10.8834 11.3172C11.0056 11.4432 11.0739 11.612 11.0738 11.7875C11.0738 11.7875 11.0738 11.7875 11.0738 11.7875V21.5918C11.0738 21.7709 11.0027 21.9426 10.876 22.0693C10.7494 22.1959 10.5777 22.267 10.3986 22.2671L7.59669 22.2718ZM7.59669 22.2718L10.3985 22.2671L7.59669 22.2718ZM10.0812 21.2602H7.92823V12.1191H10.0812V21.2602Z" fill="#FDF8ED" stroke="#FDF8ED" stroke-width="0.1"/>
<path d="M9.00493 7.09287L9.05475 7.09268V7.08891C9.20247 7.09426 9.3482 7.12581 9.48512 7.18223C9.6374 7.24498 9.77576 7.33725 9.89223 7.45371C10.0087 7.57018 10.101 7.70854 10.1637 7.86082C10.2265 8.01311 10.2585 8.1763 10.2578 8.34101V8.34119C10.2578 8.58789 10.1847 8.82906 10.0478 9.03424C9.91081 9.23943 9.71612 9.39943 9.48829 9.49405C9.26045 9.58866 9.00969 9.61365 8.76767 9.56585C8.52564 9.51806 8.30321 9.39962 8.12844 9.2255C7.95368 9.05138 7.83443 8.82938 7.78575 8.58753C7.73706 8.34568 7.76113 8.09483 7.85491 7.86665C7.94869 7.63847 8.10797 7.44319 8.31266 7.30548C8.51734 7.16776 8.75823 7.09377 9.00493 7.09287ZM7.74865 10.2152C8.12041 10.4638 8.55755 10.5964 9.00475 10.5964V10.5464C9.29475 10.5471 9.58202 10.4905 9.85012 10.3799C10.1182 10.2694 10.3619 10.1071 10.5672 9.90222C10.7725 9.69738 10.9353 9.45407 11.0464 9.1862C11.1576 8.91834 11.2148 8.63119 11.2148 8.34119L11.2648 8.3413C11.2648 8.34126 11.2648 8.34123 11.2648 8.34119C11.2657 7.89403 11.134 7.45664 10.8863 7.08438C10.6385 6.71208 10.2859 6.42165 9.87301 6.24984C9.46013 6.07804 9.00556 6.03259 8.56684 6.11924C8.12812 6.20589 7.72497 6.42075 7.40841 6.73662C7.09185 7.05249 6.87612 7.45518 6.78852 7.89371C6.70092 8.33225 6.74539 8.78691 6.9163 9.20016C7.08722 9.6134 7.37688 9.96666 7.74865 10.2152Z" fill="#FDF8ED" stroke="#FDF8ED" stroke-width="0.1"/>
</svg>
