<svg width="250" height="46" viewBox="0 0 250 46" fill="none" xmlns="http://www.w3.org/2000/svg">
<path d="M31.7675 3.73718C31.5047 3.4042 29.9626 2.9225 27.706 2.9225C23.3801 2.9225 21.3125 4.73774 21.3125 7.66022C21.3125 15.1378 35.3396 10.8074 35.3396 20.8373C35.3396 26.4284 30.8642 28.3892 25.6367 28.3892C22.1763 28.3892 19.0559 27.5357 18.0015 27.0184V21.4305H19.8459L20.5603 24.5776C20.6736 25.0577 20.7114 25.2064 21.1991 25.3891C21.8019 25.6138 23.4935 26.1682 25.9767 26.1682C30.1515 26.1682 32.6708 24.6132 32.6708 21.0231C32.6708 13.1027 18.6437 17.6545 18.6437 7.92046C18.6437 2.77541 22.7807 0.664368 27.8571 0.664368C30.9776 0.664368 33.423 1.47904 34.5513 1.88638V7.81055L32.633 7.62466L32.0303 4.44193C31.9564 4.10895 31.8808 3.8875 31.7675 3.73718Z" fill="#FDF8ED"/>
<path d="M41.3587 26.0583C41.8859 26.0227 41.9614 25.8724 41.9614 25.318V12.0666C41.9614 11.6592 41.8481 11.4022 41.472 11.2907L39.291 10.5876L39.5916 9.03256H44.4808V25.318C44.4808 25.908 44.5185 25.9823 45.0819 26.0583L47.7145 26.3169V27.9463H38.6505V26.2813L41.3587 26.0583ZM42.712 4.44193C41.4343 4.44193 40.6804 3.73879 40.6804 2.4796C40.6804 1.22041 41.4326 0.517273 42.712 0.517273C43.9897 0.517273 44.7435 1.22041 44.7435 2.4796C44.7435 3.73879 43.9914 4.44193 42.712 4.44193Z" fill="#FDF8ED"/>
<path d="M52.2276 26.0583C52.7548 26.0227 52.8304 25.8724 52.8304 25.3179V3.03402C52.8304 2.62668 52.7171 2.36967 52.341 2.25813L50.0466 1.55499L50.3472 0H55.3497V25.3179C55.3497 25.9079 55.3875 25.9823 55.9508 26.0583L58.3962 26.3169V27.9462H49.7083V26.2813L52.2276 26.0583Z" fill="#FDF8ED"/>
<path d="M60.5772 10.9932L58.9595 10.6586L59.3356 9.03253H66.4436V10.6586L63.7732 10.9545L69.3768 25.6493L74.9804 10.9545L72.4233 10.6586L72.7994 9.03253H79.3063V10.6586L78.1025 10.8833C77.5753 10.9949 77.3503 11.066 77.1631 11.5121L70.7317 27.9446H67.8724L61.3672 11.622C61.1783 11.1775 61.0272 11.1048 60.5772 10.9932Z" fill="#FDF8ED"/>
<path d="M89.3853 28.3908C82.7289 28.3908 80.6235 23.986 80.6235 18.3964C80.6235 11.7691 84.3089 8.66077 88.8975 8.66077C93.3351 8.66077 96.4555 11.066 96.4555 17.3959C96.4555 17.9148 96.4177 18.432 96.3816 18.9864H83.2561C83.3694 23.2069 85.0233 26.131 89.5742 26.131C91.9046 26.131 93.1084 25.7237 94.915 24.7603L95.8544 26.8325C94.1595 27.7975 92.0163 28.3908 89.3853 28.3908ZM88.932 10.8445C86.0744 10.8445 83.6683 12.3995 83.3284 16.9902H93.859C93.7851 12.3995 91.5663 10.8445 88.932 10.8445Z" fill="#FDF8ED"/>
<path d="M101.721 26.0582C102.248 25.9839 102.324 25.8724 102.324 25.3179V12.0665C102.324 11.6592 102.21 11.4022 101.834 11.2906L99.6531 10.5875L99.9537 9.03251H104.242L104.58 11.4022C105.82 10.2529 107.776 8.66235 110.409 8.66235C111.274 8.66235 112.215 8.80945 112.892 8.99534V14.1404L110.974 14.0289L110.486 11.2163C110.448 10.956 110.41 10.8833 110.034 10.8833C108.04 10.8833 105.822 12.6598 104.845 13.6215V25.3195C104.845 25.9095 104.882 26.0227 105.446 26.0599L108.83 26.3185V27.9478H99.7681V26.2829L101.721 26.0582Z" fill="#FDF8ED"/>
<path d="M118.643 26.0583C119.171 25.9839 119.244 25.8724 119.244 25.3179V3.81312C119.244 3.25869 119.171 3.14554 118.643 3.0728L116.275 2.81255V1.14764H125.489V2.81255L122.366 3.10836C121.802 3.14392 121.765 3.29425 121.765 3.8115V25.8707H132.445C132.859 25.8707 132.973 25.8352 133.047 25.4634L133.649 22.2435H135.53V27.943H116.275V26.3153L118.643 26.0583Z" fill="#FDF8ED"/>
<path d="M150.95 25.4295C148.956 27.2415 146.85 28.3907 143.993 28.3907C139.292 28.3907 138.765 25.208 138.765 23.4671C138.765 19.7655 141.096 18.2105 145.535 17.8032L150.913 17.3215V15.2493C150.913 12.1409 150.275 10.7718 146.625 10.7718C144.106 10.7718 142.188 10.7718 142.15 13.7702L139.742 13.4744C139.742 9.10525 143.879 8.66235 146.661 8.66235C151.813 8.66235 153.431 10.1414 153.431 15.1765V25.3195C153.431 25.9095 153.469 25.9839 154.034 26.0599L155.988 26.3185V27.9478H151.4L151.061 25.4682L150.95 25.4295ZM141.396 23.1713C141.396 25.3907 142.524 26.3169 144.48 26.3169C147.075 26.3169 149.519 24.652 150.912 22.8399V19.2838L145.985 19.7267C142.375 20.0613 141.396 21.0991 141.396 23.1713Z" fill="#FDF8ED"/>
<path d="M173.589 26.0583C174.116 25.9839 174.192 25.9096 174.192 25.3551V16.4713C174.192 12.6582 173.139 10.9189 170.355 10.9189C167.611 10.9189 164.941 12.6582 163.812 13.6943V25.3163C163.812 25.9063 163.85 25.9807 164.415 26.0566L166.672 26.3153V27.9446H158.736V26.2797L160.692 26.0583C161.219 25.9839 161.293 25.8724 161.293 25.3179V12.0666C161.293 11.6592 161.18 11.4022 160.805 11.2907L158.624 10.5875L158.925 9.03254H163.173L163.474 11.3262L163.587 11.3618C165.468 9.99269 167.875 8.66077 170.882 8.66077C175.284 8.66077 176.713 11.4006 176.713 15.6922V25.3179C176.713 25.9079 176.751 25.9823 177.314 26.0583L179.57 26.3169V27.9462H171.636V26.2813L173.589 26.0583Z" fill="#FDF8ED"/>
<path d="M191.116 28.3908C184.836 28.3908 182.203 24.3934 182.203 18.6906C182.203 11.622 186.265 8.66077 191.867 8.66077C194.575 8.66077 196.493 9.36391 197.207 9.66133V14.2132L195.291 14.1016L194.839 11.6576C194.801 11.4362 194.765 11.2891 194.425 11.1759C193.898 10.9933 192.734 10.8074 191.568 10.8074C187.807 10.8074 184.836 12.9168 184.836 18.5791C184.836 23.91 187.431 26.1682 191.454 26.1682C193.335 26.1682 195.064 25.6493 196.306 24.8718L197.285 26.9473C195.967 27.7975 193.484 28.3908 191.116 28.3908Z" fill="#FDF8ED"/>
<path d="M208.492 28.3908C201.834 28.3908 199.728 23.986 199.728 18.3964C199.728 11.7691 203.415 8.66077 208.002 8.66077C212.44 8.66077 215.562 11.066 215.562 17.3959C215.562 17.9148 215.524 18.432 215.486 18.9864H202.361C202.474 23.2069 204.128 26.131 208.679 26.131C211.011 26.131 212.215 25.7237 214.02 24.7603L214.959 26.8325C213.268 27.7975 211.124 28.3908 208.492 28.3908ZM208.04 10.8445C205.181 10.8445 202.775 12.3995 202.437 16.9902H212.965C212.892 12.3995 210.673 10.8445 208.04 10.8445Z" fill="#FDF8ED"/>
<path d="M220.827 26.0583C221.355 25.9839 221.428 25.8724 221.428 25.3179V12.0666C221.428 11.6592 221.315 11.4022 220.941 11.2907L218.758 10.5859L219.059 9.03093H223.347L223.685 11.4006C224.927 10.2513 226.881 8.66077 229.515 8.66077C230.379 8.66077 231.32 8.80786 231.997 8.99375V14.1388L230.079 14.0273L229.591 11.2147C229.553 10.9545 229.517 10.8817 229.139 10.8817C227.145 10.8817 224.928 12.6582 223.949 13.6199V25.3179C223.949 25.9079 223.987 26.0211 224.552 26.0583L227.935 26.3169V27.9462H218.873V26.2813L220.827 26.0583Z" fill="#FDF8ED"/>
<path d="M71.8026 37.315H72.2296V45.57H77.3684V45.9515H71.8026V37.315Z" fill="#FDF8ED"/>
<path d="M80.86 45.4327C80.1702 45.0544 79.6299 44.5307 79.2374 43.8647C78.8448 43.1988 78.6478 42.4552 78.6478 41.6325C78.6478 40.8097 78.8448 40.0661 79.2374 39.4002C79.6299 38.7342 80.1718 38.2105 80.86 37.8323C81.5498 37.454 82.32 37.2649 83.1724 37.2649C84.0247 37.2649 84.7983 37.454 85.4913 37.8323C86.186 38.2105 86.7297 38.7342 87.1222 39.4002C87.5147 40.0661 87.7118 40.8097 87.7118 41.6325C87.7118 42.4552 87.5147 43.1988 87.1222 43.8647C86.7297 44.5307 86.186 45.0544 85.4913 45.4327C84.7983 45.8109 84.0247 46 83.1724 46C82.32 46 81.5498 45.8109 80.86 45.4327ZM85.2663 45.0997C85.8937 44.7554 86.3864 44.2785 86.7444 43.6691C87.1041 43.0597 87.2848 42.3809 87.2848 41.6325C87.2848 40.8841 87.1041 40.2052 86.7444 39.5958C86.3864 38.988 85.8921 38.5095 85.2663 38.1652C84.639 37.8193 83.941 37.6464 83.1724 37.6464C82.4038 37.6464 81.7074 37.8193 81.085 38.1652C80.4625 38.5095 79.9715 38.9864 79.6118 39.5958C79.2521 40.2052 79.0731 40.8841 79.0731 41.6325C79.0731 42.3809 79.2521 43.0597 79.6118 43.6691C79.9698 44.2769 80.4609 44.7554 81.085 45.0997C81.7074 45.4456 82.4038 45.6185 83.1724 45.6185C83.941 45.6185 84.639 45.4456 85.2663 45.0997Z" fill="#FDF8ED"/>
<path d="M91.9786 45.4327C91.2888 45.0544 90.7485 44.5307 90.3559 43.8647C89.9634 43.1988 89.7664 42.4552 89.7664 41.6325C89.7664 40.8097 89.9618 40.0661 90.3559 39.4002C90.7485 38.7342 91.2904 38.2105 91.9786 37.8323C92.6667 37.454 93.4386 37.2649 94.2926 37.2649C94.8937 37.2649 95.4587 37.3619 95.9842 37.5558C96.5114 37.7482 96.963 38.0343 97.3375 38.4125L97.0747 38.6841C96.3472 37.9923 95.4242 37.6464 94.3041 37.6464C93.5355 37.6464 92.8375 37.8226 92.2101 38.1717C91.5828 38.5208 91.0901 39.0009 90.7304 39.6087C90.3724 40.2165 90.1917 40.8921 90.1917 41.6325C90.1917 42.3728 90.3724 43.0468 90.7304 43.6562C91.0901 44.2656 91.5844 44.7441 92.2101 45.0932C92.8375 45.444 93.5355 45.6185 94.3041 45.6185C95.416 45.6185 96.339 45.2678 97.0747 44.5695L97.3375 44.841C96.9614 45.2193 96.513 45.507 95.9891 45.7042C95.4669 45.9014 94.9003 46 94.291 46C93.4386 46 92.6683 45.8109 91.9786 45.4327Z" fill="#FDF8ED"/>
<path d="M105.362 43.4218H100.108L98.9305 45.9515H98.4658L102.527 37.315H102.941L107.003 45.9515H106.538L105.362 43.4218ZM105.199 43.0646L102.742 37.7951L100.272 43.0646H105.199Z" fill="#FDF8ED"/>
<path d="M109.336 37.315H109.762V45.57H114.902V45.9515H109.336V37.315Z" fill="#FDF8ED"/>
<path d="M117.259 37.315H117.686V45.9515H117.259V37.315Z" fill="#FDF8ED"/>
<path d="M127.5 45.57V45.9515H120.53V45.6557L126.786 37.6965H120.593V37.315H127.362V37.6108L121.107 45.57H127.5Z" fill="#FDF8ED"/>
<path d="M135.574 43.4218H130.32L129.143 45.9515H128.678L132.739 37.315H133.153L137.215 45.9515H136.75L135.574 43.4218ZM135.412 43.0646L132.955 37.7951L130.485 43.0646H135.412Z" fill="#FDF8ED"/>
<path d="M140.775 37.6965H137.555V37.315H144.411V37.6965H141.189V45.9515H140.775V37.6965Z" fill="#FDF8ED"/>
<path d="M146.694 37.315H147.12V45.9515H146.694V37.315Z" fill="#FDF8ED"/>
<path d="M152.28 45.4327C151.59 45.0544 151.05 44.5307 150.657 43.8647C150.265 43.1988 150.068 42.4552 150.068 41.6325C150.068 40.8097 150.265 40.0661 150.657 39.4002C151.05 38.7342 151.592 38.2105 152.28 37.8323C152.97 37.454 153.74 37.2649 154.592 37.2649C155.445 37.2649 156.218 37.454 156.911 37.8323C157.606 38.2105 158.15 38.7342 158.542 39.4002C158.935 40.0661 159.132 40.8097 159.132 41.6325C159.132 42.4552 158.935 43.1988 158.542 43.8647C158.15 44.5307 157.606 45.0544 156.911 45.4327C156.218 45.8109 155.445 46 154.592 46C153.74 46 152.968 45.8109 152.28 45.4327ZM156.685 45.0997C157.312 44.7554 157.805 44.2785 158.163 43.6691C158.522 43.0597 158.703 42.3809 158.703 41.6325C158.703 40.8841 158.522 40.2052 158.163 39.5958C157.805 38.988 157.31 38.5095 156.685 38.1652C156.057 37.8193 155.359 37.6464 154.591 37.6464C153.822 37.6464 153.126 37.8193 152.503 38.1652C151.881 38.5095 151.39 38.9864 151.03 39.5958C150.67 40.2052 150.491 40.8841 150.491 41.6325C150.491 42.3809 150.67 43.0597 151.03 43.6691C151.388 44.2769 151.879 44.7554 152.503 45.0997C153.126 45.4456 153.822 45.6185 154.591 45.6185C155.359 45.6185 156.059 45.4456 156.685 45.0997Z" fill="#FDF8ED"/>
<path d="M169.083 37.315V45.9515H168.731L162.5 38.0796V45.9515H162.075V37.315H162.426L168.657 45.187V37.315H169.083Z" fill="#FDF8ED"/>
<path d="M173.326 45.667C172.755 45.4456 172.313 45.1579 172.004 44.8039L172.229 44.5081C172.522 44.8378 172.929 45.1061 173.453 45.3163C173.975 45.5264 174.532 45.6315 175.126 45.6315C176.003 45.6315 176.665 45.4601 177.114 45.1191C177.56 44.778 177.784 44.34 177.784 43.8049C177.784 43.3943 177.665 43.063 177.432 42.8124C177.199 42.5619 176.91 42.3728 176.567 42.2451C176.223 42.1174 175.757 41.9832 175.162 41.8442C174.528 41.6874 174.018 41.5355 173.633 41.3868C173.249 41.238 172.924 41.0134 172.655 40.7079C172.389 40.404 172.254 39.9966 172.254 39.4859C172.254 39.0834 172.362 38.7132 172.579 38.3754C172.796 38.0375 173.129 37.7676 173.576 37.5672C174.023 37.3667 174.581 37.2649 175.249 37.2649C175.726 37.2649 176.195 37.3344 176.66 37.475C177.125 37.614 177.519 37.808 177.846 38.0553L177.657 38.3883C177.314 38.141 176.933 37.9551 176.511 37.8274C176.089 37.6997 175.673 37.6351 175.263 37.6351C174.41 37.6351 173.765 37.8096 173.326 38.1588C172.888 38.5095 172.669 38.9508 172.669 39.4859C172.669 39.9045 172.788 40.2407 173.027 40.4913C173.266 40.7418 173.558 40.9342 173.904 41.0651C174.253 41.196 174.717 41.3318 175.302 41.4724C175.938 41.6292 176.447 41.7779 176.831 41.9234C177.215 42.0673 177.541 42.2887 177.803 42.5894C178.066 42.89 178.199 43.2909 178.199 43.792C178.199 44.1961 178.087 44.5663 177.866 44.9025C177.644 45.2387 177.304 45.5054 176.844 45.7042C176.384 45.9014 175.816 46 175.139 46C174.502 46 173.899 45.8901 173.326 45.667Z" fill="#FDF8ED"/>
<path d="M2.69071 14.3412L0 16.9895L2.69071 19.6378L5.38142 16.9895L2.69071 14.3412Z" fill="#7DA2AB"/>
<path d="M247.306 14.3434L244.615 16.9916L247.306 19.6399L249.996 16.9916L247.306 14.3434Z" fill="#7DA2AB"/>
</svg>
