<svg width="35" height="35" viewBox="0 0 35 35" fill="none" xmlns="http://www.w3.org/2000/svg">
<circle cx="17.5" cy="17.5" r="17.5" fill="#ECB947"/>
<path d="M11.8286 21C11.6091 20.9995 11.3987 20.9079 11.2429 20.7451C11.1659 20.6641 11.1048 20.5679 11.0631 20.462C11.0214 20.3561 11 20.2426 11 20.128C11 20.0134 11.0214 19.8999 11.0631 19.794C11.1048 19.6881 11.1659 19.5919 11.2429 19.5109L16.9725 13.4741C17.115 13.3238 17.2842 13.2046 17.4704 13.1232C17.6566 13.0419 17.8563 13 18.0579 13C18.2595 13 18.4592 13.0419 18.6454 13.1232C18.8316 13.2046 19.0008 13.3238 19.1433 13.4741L24.7583 19.3901C24.8352 19.4716 24.8962 19.5683 24.9376 19.6746C24.9791 19.7808 25.0003 19.8947 25 20.0096C24.9997 20.1246 24.9779 20.2383 24.9359 20.3443C24.8939 20.4504 24.8325 20.5467 24.7551 20.6277C24.6778 20.7088 24.5861 20.773 24.4852 20.8167C24.3843 20.8603 24.2763 20.8826 24.1672 20.8823C24.0581 20.882 23.9502 20.8591 23.8495 20.8148C23.7489 20.7705 23.6575 20.7058 23.5806 20.6244L18.0611 14.8089L12.4461 20.7183C12.3674 20.8079 12.2718 20.8791 12.1655 20.9276C12.0592 20.9761 11.9444 21.0008 11.8286 21Z" fill="#FDF8ED"/>
</svg>
