<svg width="74" height="80" viewBox="0 0 74 80" fill="none" xmlns="http://www.w3.org/2000/svg">
<g clip-path="url(#clip0_154_131)">
<path d="M45.3515 73.363C45.2311 73.3616 45.1124 73.3342 45.0034 73.2826C44.8944 73.2311 44.7977 73.1567 44.7197 73.0644C41.3313 69.0283 40.891 63.6917 43.4467 58.4033L44.2986 56.8621C47.6104 50.9765 47.1701 45.8326 42.9298 41.1414C42.8556 41.0599 42.7981 40.9644 42.7607 40.8604C42.7232 40.7565 42.7064 40.6461 42.7113 40.5357C42.7162 40.4252 42.7426 40.3168 42.7892 40.2166C42.8357 40.1164 42.9013 40.0265 42.9824 39.9518C43.0635 39.8772 43.1584 39.8193 43.2617 39.7816C43.365 39.7439 43.4746 39.727 43.5844 39.7319C43.6942 39.7368 43.8019 39.7635 43.9014 39.8103C44.001 39.8571 44.0904 39.9232 44.1645 40.0048C48.8835 45.2354 49.4195 51.1884 45.763 57.6905L44.9303 59.1836C41.8386 65.5219 44.2698 69.9241 45.9928 71.9759C46.0641 72.0599 46.1182 72.1572 46.152 72.2623C46.1859 72.3674 46.1987 72.4782 46.1898 72.5883C46.1809 72.6985 46.1504 72.8057 46.1002 72.9039C46.05 73.0022 45.9809 73.0895 45.8971 73.1607C45.7444 73.2905 45.5513 73.3621 45.3515 73.363Z" fill="#7DA2AB"/>
<path d="M40.1156 40.0626C39.6703 40.7546 39.1572 41.4 38.5841 41.9892C42.4129 47.5954 42.0108 54.3961 37.4642 60.6863L36.9665 61.3606C33.7599 66.36 34.1811 71.581 38.1917 75.6171L40.4411 77.8712C40.6557 78.1114 40.7705 78.4254 40.762 78.7483C40.7535 79.0712 40.6222 79.3786 40.3952 79.607C40.1682 79.8355 39.8628 79.9676 39.5419 79.9762C39.221 79.9848 38.909 79.8692 38.6703 79.6532L36.4209 77.3317C31.5871 72.4672 31.0224 65.9362 34.9181 59.8675L35.4541 59.1355C39.3499 53.7604 39.7615 48.2215 36.6315 43.5208C35.2751 44.4173 33.7516 45.0265 32.1537 45.3114C30.5558 45.5962 28.917 45.5507 27.3372 45.1776L19.8041 52.7586C19.6888 52.8753 19.5515 52.9677 19.4003 53.0305C19.2492 53.0934 19.0871 53.1253 18.9235 53.1246C18.5936 53.124 18.2772 52.9924 18.0429 52.7586C17.9272 52.6423 17.8353 52.5041 17.7727 52.3521C17.71 52.2 17.6777 52.037 17.6777 51.8724C17.6777 51.7078 17.71 51.5447 17.7727 51.3927C17.8353 51.2406 17.9272 51.1025 18.0429 50.9861L25.8248 43.1547C26.0593 42.9237 26.3488 42.7572 26.6656 42.6711C26.9824 42.5851 27.3158 42.5824 27.6339 42.6635C29.5722 43.1702 31.6195 43.0524 33.4878 42.3266C35.356 41.6008 36.9509 40.3036 38.0481 38.6177L42.097 32.838C42.297 32.5904 42.5829 32.4283 42.8969 32.3843C43.211 32.3402 43.53 32.4176 43.7896 32.6008C44.0493 32.7839 44.2304 33.0593 44.2964 33.3714C44.3624 33.6836 44.3084 34.0093 44.1454 34.283L40.1156 40.0626Z" fill="#7DA2AB"/>
<path d="M22.647 31.2197C22.0485 31.2521 21.4503 31.1534 20.8934 30.9306C20.3365 30.7077 19.8342 30.366 19.4213 29.9289C19.2901 29.7293 19.196 29.5074 19.1437 29.2739C19.1447 29.0259 19.2407 28.7878 19.4117 28.6093L24.9442 23.0415C25.2409 22.7525 25.8248 23.1282 25.9971 23.3016C26.6311 23.9619 27.0576 24.7956 27.2235 25.6984C27.3894 26.6013 27.2873 27.5333 26.9298 28.3781C26.5724 29.2229 25.9756 29.9429 25.2139 30.4483C24.4521 30.9537 23.5593 31.222 22.647 31.2197ZM21.2399 29.168C21.8042 29.4742 22.4517 29.5889 23.086 29.4951C23.7203 29.4012 24.3075 29.1037 24.7603 28.647C25.2131 28.1902 25.5073 27.5985 25.5991 26.96C25.6909 26.3214 25.5753 25.6701 25.2697 25.1029L21.2399 29.168Z" fill="#7DA2AB"/>
<path d="M73.5501 45.1584L66.2276 40.0241L71.205 32.7417C71.3103 32.6076 71.3781 32.4477 71.4017 32.2784C71.4252 32.1091 71.4036 31.9366 71.339 31.7785C71.2786 31.6244 71.1816 31.4876 71.0564 31.3801C70.9313 31.2727 70.7818 31.1977 70.6211 31.162L62.5425 29.168L63.8155 19.5352V19.044L63.5188 18.7646C63.4086 18.6614 63.2757 18.5858 63.131 18.5439C62.9864 18.5021 62.8339 18.4952 62.686 18.5238L54.483 19.7953L52.492 12.2722L52.3197 11.8194L51.9656 11.6653C51.819 11.6095 51.6617 11.5883 51.5057 11.6033C51.3497 11.6184 51.1992 11.6692 51.0658 11.752L45.0451 15.6051C43.1308 12.6189 34.0854 1.24265 33.4919 0.500928C33.3471 0.312119 33.1557 0.164695 32.9368 0.0732928C32.7179 -0.0181096 32.479 -0.0503134 32.2439 -0.0201303C32.0088 0.0100528 31.7857 0.101568 31.5966 0.245352C31.4075 0.389137 31.259 0.58019 31.1659 0.799541L31.0702 1.03072V12.59L22.4556 1.54127C22.3038 1.31654 22.0864 1.14485 21.8334 1.04999C21.6303 0.989591 21.4161 0.976777 21.2073 1.01252C20.9985 1.04827 20.8006 1.13162 20.6288 1.25621C20.457 1.38079 20.3157 1.54331 20.2159 1.7313C20.1161 1.91929 20.0604 2.12776 20.053 2.34077C20.0433 2.43041 20.0433 2.52085 20.053 2.61049L20.1487 14.9982L17.4878 17.888C15.6664 19.7243 14.2878 21.9565 13.4581 24.4131C12.6284 26.8696 12.3697 29.4849 12.7018 32.0578L2.63224 42.1915C1.73297 43.0922 1.0361 44.1765 0.588622 45.3712C0.141146 46.566 -0.0465224 47.8435 0.0382728 49.1174C0.218902 51.3987 1.21933 53.5356 2.85239 55.1283L5.44636 57.7291C5.62433 57.9097 5.83606 58.053 6.06935 58.1508C6.30263 58.2486 6.55285 58.299 6.80557 58.299C7.05829 58.299 7.3085 58.2486 7.54179 58.1508C7.77507 58.053 7.9868 57.9097 8.16477 57.7291L9.83028 56.053L14.1663 57.6809C14.2837 57.7211 14.4062 57.7438 14.5301 57.7484C14.6932 57.7435 14.8529 57.7002 14.9964 57.622C15.1399 57.5437 15.2632 57.4327 15.3563 57.2978C15.4494 57.1628 15.5097 57.0078 15.5325 56.8452C15.5552 56.6825 15.5397 56.5168 15.4872 56.3612L13.9462 51.882L23.4223 42.3456C23.5489 42.231 23.6511 42.0917 23.7224 41.9361C23.7938 41.7806 23.833 41.612 23.8375 41.4407C23.842 41.2694 23.8118 41.0989 23.7488 40.9398C23.6857 40.7806 23.5911 40.636 23.4707 40.5148C23.3503 40.3937 23.2066 40.2985 23.0484 40.235C22.8903 40.1715 22.7209 40.1411 22.5507 40.1457C22.3805 40.1502 22.213 40.1896 22.0584 40.2615C21.9038 40.3333 21.7653 40.4361 21.6515 40.5635L6.78642 55.6003L4.38389 53.1824C3.71204 52.5128 3.19616 51.7015 2.8734 50.807C2.55065 49.9125 2.42905 48.9571 2.51738 48.0097C2.69441 46.4258 3.41554 44.954 4.55619 43.8483L14.5396 33.7628C14.7755 33.5266 14.953 33.2379 15.0578 32.92C15.1625 32.6021 15.1916 32.2639 15.1427 31.9326C14.836 29.7121 15.0446 27.4502 15.752 25.3244C16.4595 23.1986 17.6466 21.2665 19.2203 19.6797L21.9674 16.6936C22.3748 16.2445 22.5943 15.6544 22.58 15.0464L22.5034 5.77004L31.0319 16.6454L31.1564 16.7803C31.3421 16.9569 31.5718 17.0797 31.8212 17.1357C32.0705 17.1916 32.3303 17.1787 32.573 17.0982C32.8105 17.0239 33.0242 16.8876 33.1924 16.7032C33.3605 16.5187 33.4771 16.2927 33.5302 16.0482V4.65264C36.4975 8.41905 41.8003 15.1909 42.968 17.0982C43.3219 17.6587 43.8504 18.0855 44.4708 18.3119C58.0916 23.3402 65.2034 35.5256 63.0211 50.1C62.9744 50.4293 63.0589 50.7638 63.256 51.0308C63.4532 51.2978 63.7472 51.4756 64.074 51.5256C64.2711 51.558 64.4731 51.5406 64.6619 51.4751C64.8507 51.4095 65.0203 51.2978 65.1556 51.1499L73.4544 46.8537C73.5977 46.7688 73.718 46.6496 73.8048 46.5069C73.8916 46.3641 73.9422 46.202 73.9521 46.0349C73.9589 45.8672 73.926 45.7003 73.8561 45.5479C73.7862 45.3955 73.6813 45.262 73.5501 45.1584ZM12.6253 53.2499L13.458 55.6677L11.1033 54.7815L12.6253 53.2499ZM46.7968 16.4817L51.1424 13.6785L52.7313 19.699C50.8679 18.4357 48.8829 17.3643 46.8063 16.5009L46.7968 16.4817ZM60.9823 28.041C59.3333 25.5255 57.3165 23.2749 54.9998 21.3655L62.0065 20.2866L60.9823 28.041ZM62.5999 30.8345L69.3002 32.5491L65.2705 38.4829C64.731 35.8395 63.8358 33.2825 62.6095 30.8826L62.5999 30.8345ZM65.7108 48.944C65.9688 46.5525 65.9688 44.1399 65.7108 41.7484L71.6262 45.8616L65.7108 48.944Z" fill="#7DA2AB"/>
</g>
<defs>
<clipPath id="clip0_154_131">
<rect width="74" height="80" fill="white"/>
</clipPath>
</defs>
</svg>
