<svg width="57" height="79" viewBox="0 0 57 79" fill="none" xmlns="http://www.w3.org/2000/svg">
<g clip-path="url(#clip0_139_23)">
<path d="M47.796 7.47056C42.6125 2.73333 35.833 0.0706694 28.7748 -4.14762e-06H28.5529C21.4079 -0.0204418 14.5164 2.61639 9.24646 7.38699C6.29487 10.1162 3.94889 13.4219 2.35721 17.0947C0.765528 20.7674 -0.0371389 24.727 7.77351e-05 28.7225V60.4437C7.77351e-05 68.8024 10.3349 75.97 14.7943 78.6657C15.1296 78.8683 15.5135 78.9788 15.9064 78.9858C16.2993 78.9928 16.687 78.896 17.0295 78.7054C17.3719 78.5148 17.6568 78.2373 17.8546 77.9016C18.0524 77.5658 18.156 77.184 18.1547 76.7954V46.8818C18.1559 46.4105 18.0105 45.9503 17.7383 45.5634C17.4662 45.1765 17.0803 44.8818 16.633 44.719L9.23588 41.8561V34.3542L22.7515 37.4887V57.7167C22.7515 59.2186 23.3549 60.6591 24.429 61.7211C25.5031 62.7831 26.9599 63.3797 28.4789 63.3797C29.998 63.3797 31.4548 62.7831 32.5289 61.7211C33.603 60.6591 34.2064 59.2186 34.2064 57.7167V37.5096L47.722 34.3751V41.8666L40.3988 44.6981C39.942 44.8578 39.5463 45.1534 39.2663 45.5445C38.9863 45.9355 38.8355 46.4026 38.8349 46.8818V76.8059C38.8349 77.1951 38.9396 77.5773 39.1383 77.9133C39.337 78.2493 39.6225 78.527 39.9656 78.7179C40.2907 78.8909 40.6531 78.984 41.0223 78.9896C41.4279 78.9906 41.8262 78.8822 42.1741 78.6761C46.6124 75.9909 56.9684 68.8338 56.9684 60.4542V28.7225C57.0059 24.746 56.2103 20.8049 54.6317 17.1474C53.0531 13.4898 50.7257 10.1951 47.796 7.47056ZM11.0746 9.40351C15.8241 5.10445 22.0292 2.71896 28.4684 2.71657H28.6797C34.6136 2.75405 40.3501 4.82823 44.9086 8.58453C49.4671 12.3408 52.5645 17.546 53.6714 23.3103L29.3666 28.7539C28.7822 28.8845 28.1757 28.8845 27.5913 28.7539L3.28651 23.2998C4.33354 17.9639 7.07256 13.0964 11.1063 9.40351H11.0746ZM54.2103 60.4542C54.2103 67.1098 45.4078 73.4101 41.593 75.8342V47.1639L48.895 44.3219C49.3538 44.164 49.7517 43.869 50.0338 43.4779C50.3158 43.0867 50.468 42.6186 50.4695 42.1382V33.8318C50.4689 33.4823 50.3888 33.1375 50.2351 32.8228C50.0815 32.5081 49.8582 32.2316 49.5818 32.0138C49.3055 31.7975 48.9829 31.6465 48.6386 31.5723C48.2944 31.498 47.9375 31.5025 47.5952 31.5854L33.2342 34.9288C32.7219 35.0509 32.2661 35.3399 31.9402 35.7493C31.6143 36.1587 31.4374 36.6647 31.4378 37.1857V57.7376C31.4378 58.5163 31.1249 59.2631 30.5681 59.8137C30.0112 60.3643 29.2559 60.6736 28.4684 60.6736C27.6808 60.6736 26.9255 60.3643 26.3687 59.8137C25.8118 59.2631 25.499 58.5163 25.499 57.7376V37.1857C25.4994 36.6647 25.3224 36.1587 24.9965 35.7493C24.6706 35.3399 24.2148 35.0509 23.7025 34.9288L9.34156 31.5854C8.99935 31.5017 8.64227 31.4969 8.29785 31.5711C7.95342 31.6454 7.63083 31.7968 7.35491 32.0138C7.07854 32.2316 6.85526 32.5081 6.70161 32.8228C6.54796 33.1375 6.46786 33.4823 6.46726 33.8318V42.1382C6.46608 42.6095 6.61142 43.0697 6.88361 43.4566C7.15579 43.8434 7.54167 44.1382 7.98895 44.301L15.3861 47.1639V75.8342C11.5713 73.4101 2.7687 67.1098 2.7687 60.4542V28.733C2.76969 27.524 2.85087 26.3163 3.01175 25.1178L27.2637 30.551C27.6879 30.638 28.1197 30.6835 28.5529 30.6868C28.998 30.6868 29.4414 30.6342 29.8738 30.5301L53.999 25.1492C54.1602 26.3441 54.2414 27.5483 54.242 28.7539L54.2103 60.4542Z" fill="#7DA2AB"/>
<path d="M28.5 72.1668C26.553 72.1753 24.6811 71.4244 23.2903 70.0771C23.118 69.9066 23.0212 69.6755 23.0212 69.4345C23.0212 69.1935 23.118 68.9624 23.2903 68.7919C23.375 68.7063 23.4761 68.6383 23.5877 68.5919C23.6993 68.5454 23.8191 68.5215 23.9402 68.5215C24.0613 68.5215 24.1812 68.5454 24.2928 68.5919C24.4044 68.6383 24.5055 68.7063 24.5901 68.7919C25.6422 69.7968 27.0478 70.3584 28.5106 70.3584C29.9733 70.3584 31.3789 69.7968 32.431 68.7919C32.6062 68.6229 32.8421 68.5296 33.0868 68.5325C33.3316 68.5355 33.5651 68.6344 33.7361 68.8076C33.9071 68.9808 34.0014 69.2141 33.9985 69.4561C33.9955 69.6981 33.8954 69.9289 33.7202 70.098C32.3235 71.4402 30.4477 72.1836 28.5 72.1668Z" fill="#7DA2AB"/>
</g>
<defs>
<clipPath id="clip0_139_23">
<rect width="57" height="79" fill="white"/>
</clipPath>
</defs>
</svg>
