<svg width="70" height="81" viewBox="0 0 70 81" fill="none" xmlns="http://www.w3.org/2000/svg">
<path d="M67.4629 8.3248L63.9626 1.01845C63.8294 0.764395 63.6404 0.543745 63.4099 0.373C63.1794 0.202254 62.9133 0.0858316 62.6315 0.0324329C62.346 -0.0216843 62.0518 -0.00792571 61.7726 0.0725739C61.4934 0.153074 61.2371 0.298061 61.0243 0.49586L55.049 5.95838C50.9389 9.74515 48.1414 14.7425 47.0623 20.226L41.6491 48.0118C40.5645 53.5828 45.8495 59.844 49.4682 61.4019L48.9752 63.9359L46.3228 61.9639C46.1351 61.8314 45.9029 61.7779 45.6761 61.8148C45.4494 61.8517 45.2461 61.976 45.11 62.1611C44.9781 62.3473 44.9249 62.5779 44.9618 62.803C44.9987 63.0281 45.1228 63.2297 45.3072 63.364L48.6104 65.76L46.1552 78.4894C46.0879 78.8201 46.1537 79.1639 46.3383 79.4463C46.5229 79.7287 46.8114 79.9269 47.1412 79.998H47.3877C47.687 79.9986 47.9771 79.8944 48.2076 79.7035C48.4381 79.5126 48.5945 79.247 48.6498 78.9529L51.1148 66.2136L54.9504 65.2276C55.0598 65.1991 55.1626 65.1493 55.2528 65.0811C55.3429 65.0129 55.4188 64.9277 55.476 64.8302C55.5333 64.7326 55.5707 64.6248 55.5863 64.5128C55.6018 64.4008 55.5952 64.2869 55.5667 64.1775C55.5382 64.0681 55.4884 63.9653 55.4202 63.8751C55.3521 63.785 55.2668 63.7091 55.1693 63.6519C55.0717 63.5946 54.9639 63.5572 54.8519 63.5416C54.7399 63.5261 54.626 63.5327 54.5166 63.5612L51.4698 64.3599L51.9727 61.8061C56.5379 61.8061 62.947 58.3748 64.0513 52.6658L69.5237 24.5447C70.5847 19.0567 69.8626 13.3731 67.4629 8.3248ZM48.9456 23.9728L54.9701 32.8469L53.5601 40.1533L47.5257 31.2299L48.9456 23.9728ZM49.9316 58.7593C47.4074 57.3296 43.3648 52.4488 44.1339 48.4654L47.0229 33.6752L53.0573 42.6085L49.9316 58.7593ZM61.5468 52.1826C60.7186 56.4521 55.828 58.9171 52.4952 59.203L54.0926 50.9008L62.9667 44.9059L61.5468 52.1826ZM63.4301 42.5099L54.556 48.5048L55.6505 42.8648L64.5246 36.8501L63.4301 42.5099ZM67.0291 24.0517L64.9979 34.4541L56.1238 40.4688L59.8706 21.0739C59.9347 20.7392 59.8632 20.3928 59.6718 20.1108C59.4804 19.8288 59.1848 19.6343 58.8501 19.5703C58.5154 19.5062 58.1689 19.5777 57.8869 19.7691C57.6049 19.9605 57.4105 20.2561 57.3464 20.5908L55.4336 30.4509L49.409 21.5768L49.5865 20.6697C50.5642 15.7412 53.0851 11.2518 56.7844 7.85153L62.0596 3.02992L65.1458 9.46858C67.3162 14.003 67.9862 19.1109 67.0586 24.0517H67.0291Z" fill="#7DA2AB"/>
<path d="M59.5748 17.1103H59.3283C59.0011 17.0346 58.7157 16.8354 58.532 16.5542C58.3482 16.2731 58.2802 15.9318 58.3423 15.6017L58.3916 15.3946C58.419 15.2249 58.4804 15.0624 58.5719 14.9168C58.6634 14.7713 58.7832 14.6457 58.9243 14.5474C59.0654 14.4491 59.2248 14.3803 59.393 14.3449C59.5613 14.3095 59.7349 14.3083 59.9036 14.3413C60.0723 14.3744 60.2327 14.4411 60.3751 14.5374C60.5175 14.6337 60.6391 14.7577 60.7326 14.902C60.8261 15.0463 60.8896 15.2079 60.9194 15.3772C60.9492 15.5465 60.9446 15.7201 60.9059 15.8876V16.0947C60.8427 16.3954 60.6734 16.6634 60.4291 16.8498C60.1848 17.0362 59.8816 17.1287 59.5748 17.1103Z" fill="#7DA2AB"/>
<path d="M29.0874 80.0177H1.84384C1.35392 80.0151 0.884951 79.8187 0.539444 79.4713C0.193937 79.124 -6.93073e-06 78.6539 1.85758e-10 78.164V61.599C-2.86311e-06 60.4082 0.472349 59.2661 1.31342 58.4232C2.15449 57.5803 3.29559 57.1054 4.48636 57.1028H8.24306V56.028H6.21188C5.9664 56.0294 5.72313 55.9817 5.49633 55.8878C5.26953 55.7939 5.06376 55.6556 4.89111 55.4811C4.71845 55.3066 4.58237 55.0994 4.49085 54.8716C4.39934 54.6438 4.35423 54.4001 4.35817 54.1546V50.6148C4.35817 50.1258 4.55243 49.6568 4.89822 49.311C5.24401 48.9652 5.713 48.771 6.20201 48.771H24.7193C25.2093 48.771 25.6793 48.9649 26.0266 49.3104C26.374 49.6559 26.5704 50.1249 26.573 50.6148V54.1546C26.5756 54.3997 26.5296 54.6429 26.4376 54.8701C26.3456 55.0972 26.2095 55.3039 26.0371 55.4782C25.8647 55.6524 25.6595 55.7907 25.4333 55.8851C25.2071 55.9795 24.9644 56.028 24.7193 56.028H22.698V57.1324H26.4449C27.0361 57.1272 27.6226 57.2387 28.1708 57.4604C28.7189 57.6822 29.2179 58.0099 29.6392 58.4248C30.0605 58.8397 30.3959 59.3336 30.626 59.8783C30.8562 60.423 30.9766 61.0077 30.9805 61.599V78.164C30.9806 78.4108 30.9313 78.6551 30.8357 78.8826C30.7401 79.1101 30.6 79.3163 30.4237 79.4889C30.2474 79.6616 30.0383 79.7973 29.8089 79.8881C29.5794 79.9789 29.3341 80.023 29.0874 80.0177ZM2.57349 77.4442H28.3676V61.599C28.3551 61.093 28.1485 60.6112 27.7906 60.2533C27.4327 59.8954 26.9509 59.6888 26.4449 59.6763H21.9684C21.481 59.6737 21.0146 59.4783 20.6709 59.1328C20.3273 58.7873 20.1344 58.3197 20.1344 57.8324V55.2688C20.1344 54.7798 20.3286 54.3108 20.6744 53.965C21.0202 53.6192 21.4892 53.4249 21.9782 53.4249H24.0094V51.3445H6.94153V53.4249H8.91355C9.40257 53.4249 9.87156 53.6192 10.2173 53.965C10.5631 54.3108 10.7574 54.7798 10.7574 55.2688V57.8324C10.7574 58.3214 10.5631 58.7904 10.2173 59.1362C9.87156 59.482 9.40257 59.6763 8.91355 59.6763H4.48636C4.23432 59.6763 3.98477 59.7261 3.75205 59.8228C3.51932 59.9196 3.30801 60.0614 3.13026 60.24C2.9525 60.4187 2.81181 60.6307 2.71626 60.8639C2.62071 61.0972 2.57219 61.347 2.57349 61.599V77.4442Z" fill="#7DA2AB"/>
<path d="M23.9009 73.7764H7.03023C6.80891 73.779 6.58929 73.7375 6.38419 73.6544C6.17908 73.5712 5.99261 73.448 5.83564 73.2919C5.67868 73.1359 5.55438 72.9501 5.46999 72.7455C5.3856 72.5409 5.34282 72.3215 5.34415 72.1002V65.3263C5.34415 64.8843 5.51971 64.4605 5.83221 64.148C6.14472 63.8355 6.56856 63.6599 7.01051 63.6599H23.9009C24.3428 63.6599 24.7667 63.8355 25.0792 64.148C25.3917 64.4605 25.5673 64.8843 25.5673 65.3263V72.1002C25.5686 72.3198 25.5264 72.5376 25.4433 72.7409C25.3601 72.9442 25.2376 73.1291 25.0827 73.2849C24.9278 73.4407 24.7437 73.5643 24.5409 73.6486C24.3381 73.733 24.1206 73.7764 23.9009 73.7764ZM23.8417 65.3361L7.03023 65.3953L7.08938 72.11L23.8516 72.0509L23.8417 65.3361Z" fill="#7DA2AB"/>
</svg>
