<svg width="75" height="80" viewBox="0 0 75 80" fill="none" xmlns="http://www.w3.org/2000/svg">
<path d="M74.7862 7.50411C74.7324 5.55936 73.9458 3.70674 72.5839 2.31741C71.222 0.928091 69.3854 0.104685 67.4421 0.0121504C67.3406 -0.00405013 67.2372 -0.00405013 67.1357 0.0121504H25.0581C22.503 -0.00534454 19.9781 0.564947 17.6786 1.67897C15.3791 2.793 13.3666 4.42091 11.7966 6.43684C12.136 7.4405 12.5973 8.39871 13.1703 9.28993C14.427 7.27558 16.1804 5.61801 18.2621 4.47631C20.3438 3.3346 22.684 2.74708 25.0581 2.77011H60.3306C58.418 4.9469 57.3613 8.34947 57.3613 12.7242V67.1017C57.3613 72.6916 52.5533 77.2354 46.6358 77.2354H44.924C43.3972 77.281 41.9146 76.7192 40.8013 75.6733C39.6881 74.6274 39.035 73.1827 38.9853 71.6561C38.9853 70.3458 39.3235 66.0767 43.6242 66.0767C44.4037 66.0262 45.1836 66.1685 45.895 66.4911C46.6064 66.8136 47.2274 67.3064 47.7031 67.9259C47.9716 68.4015 48.1127 68.9384 48.1127 69.4846C48.1127 70.0307 47.9716 70.5676 47.7031 71.0432C47.6233 71.2056 47.5763 71.382 47.5647 71.5625C47.5531 71.7431 47.5772 71.9241 47.6356 72.0954C47.6939 72.2666 47.7855 72.4246 47.9049 72.5605C48.0244 72.6963 48.1695 72.8073 48.3318 72.8871C48.4942 72.9669 48.6707 73.0139 48.8512 73.0255C49.0317 73.0371 49.2128 73.013 49.384 72.9547C49.5552 72.8963 49.7133 72.8047 49.8491 72.6852C49.985 72.5658 50.096 72.4207 50.1757 72.2584C50.6675 71.3691 50.9175 70.3664 50.9009 69.3503C50.8842 68.3343 50.6014 67.3403 50.0806 66.4677C49.3621 65.4449 48.3983 64.6187 47.2777 64.0649C46.1571 63.511 44.9155 63.2472 43.6665 63.2976H11.3528V33.1924C10.9309 33.4327 10.4541 33.5601 9.96849 33.5622C9.48626 33.5602 9.01285 33.4327 8.59479 33.1924V63.3293C7.47566 63.2947 6.36104 63.4859 5.31741 63.8915C4.27379 64.297 3.32253 64.9087 2.52042 65.6898C1.7183 66.471 1.08174 67.4057 0.64873 68.4383C0.215715 69.4708 -0.00488776 70.58 8.21417e-05 71.6997C0.00505205 72.8193 0.235492 73.9265 0.677656 74.9551C1.11982 75.9838 1.76465 76.9129 2.57367 77.6869C3.38269 78.4609 4.33933 79.0641 5.38652 79.4604C6.43371 79.8566 7.54999 80.0379 8.66876 79.9934H46.6358C54.0327 79.9934 60.1192 74.2133 60.1192 67.1123V12.6819C60.1192 9.69147 60.7533 2.72783 66.6708 2.72783C67.702 2.76367 68.7032 3.08371 69.564 3.6526C70.4248 4.22149 71.1118 5.01711 71.549 5.95171C71.9862 6.8863 72.1568 7.92352 72.0418 8.94891C71.9269 9.9743 71.5309 10.948 70.8975 11.7626C70.48 12.1997 69.9758 12.5449 69.4172 12.776C68.8585 13.0071 68.2578 13.119 67.6535 13.1046C67.0827 13.0925 66.5263 12.9234 66.0454 12.6158C65.5645 12.3083 65.1776 11.8741 64.9272 11.361C64.7276 10.9785 64.6434 10.5462 64.6846 10.1167C64.7259 9.68714 64.8909 9.2788 65.1597 8.94121C65.3071 8.80799 65.4239 8.64438 65.502 8.46165C65.58 8.27892 65.6175 8.08143 65.6119 7.8828C65.6062 7.68417 65.5575 7.48913 65.4692 7.31114C65.3808 7.13316 65.2549 6.97647 65.1001 6.85187C64.9454 6.72727 64.7654 6.63774 64.5726 6.58944C64.3799 6.54114 64.1789 6.53523 63.9837 6.57212C63.7884 6.60901 63.6035 6.68782 63.4417 6.80311C63.2798 6.91841 63.1449 7.06745 63.0463 7.23994C62.4633 7.97816 62.1029 8.86735 62.0074 9.80319C61.912 10.739 62.0854 11.6827 62.5074 12.5234C62.9793 13.5039 63.7166 14.3324 64.6355 14.9152C65.5544 15.4979 66.6182 15.8115 67.7063 15.8203C68.6938 15.8377 69.674 15.6484 70.5839 15.2644C71.4938 14.8804 72.3133 14.3103 72.9898 13.5907C73.6941 12.7556 74.2174 11.7835 74.5266 10.7359C74.8358 9.68817 74.9242 8.58772 74.7862 7.50411ZM8.66876 77.246C7.90719 77.2929 7.14408 77.1834 6.42643 76.9242C5.70878 76.665 5.0518 76.2616 4.49593 75.739C3.94007 75.2163 3.4971 74.5853 3.1943 73.8849C2.89151 73.1846 2.73529 72.4297 2.73529 71.6666C2.73529 70.9036 2.89151 70.1487 3.1943 69.4483C3.4971 68.748 3.94007 68.117 4.49593 67.5943C5.0518 67.0716 5.70878 66.6683 6.42643 66.4091C7.14408 66.1499 7.90719 66.0404 8.66876 66.0873H37.8547C36.7304 67.7251 36.1635 69.6815 36.2379 71.6666C36.2417 73.7449 37.0437 75.7422 38.4781 77.246H8.66876Z" fill="#7DA2AB"/>
<path d="M18.961 18.7474C16.5385 17.9426 14.4843 16.297 13.1703 14.1085C12.2395 12.6047 11.5813 10.9485 11.226 9.216C11.1784 8.91811 11.0262 8.64693 10.7967 8.45115C10.5672 8.25537 10.2754 8.14783 9.97377 8.14783C9.67211 8.14783 9.38033 8.25537 9.15083 8.45115C8.92133 8.64693 8.76914 8.91811 8.72159 9.216C7.74943 13.9289 4.79068 17.585 0.976015 18.7263C0.706185 18.8217 0.472575 18.9985 0.307349 19.2322C0.142123 19.4659 0.0534058 19.745 0.0534058 20.0313C0.0534058 20.3175 0.142123 20.5967 0.307349 20.8304C0.472575 21.0641 0.706185 21.2408 0.976015 21.3363C4.64275 22.467 7.51695 25.8695 8.59478 30.3288C8.59478 30.5084 8.67932 30.688 8.72159 30.8783C8.76914 31.1761 8.92133 31.4473 9.15083 31.6431C9.38033 31.8389 9.67211 31.9464 9.97377 31.9464C10.2754 31.9464 10.5672 31.8389 10.7967 31.6431C11.0262 31.4473 11.1784 31.1761 11.226 30.8783C11.226 30.688 11.2999 30.5084 11.3528 30.3288C11.8341 28.3206 12.7543 26.4441 14.0473 24.834C15.3138 23.2236 17.032 22.0278 18.9821 21.3997C19.2519 21.3042 19.4855 21.1275 19.6508 20.8938C19.816 20.6601 19.9047 20.3809 19.9047 20.0947C19.9047 19.8085 19.816 19.5293 19.6508 19.2956C19.4855 19.0619 19.2519 18.8851 18.9821 18.7897L18.961 18.7474ZM11.3528 25.4363C11.0569 25.9224 10.7927 26.4401 10.5391 26.9685C10.2855 27.4968 10.1376 27.9407 9.96849 28.4479C9.80321 27.944 9.60916 27.4501 9.3873 26.9685C9.15281 26.4429 8.8882 25.9313 8.59478 25.4363C7.26197 23.0766 5.22162 21.1952 2.76183 20.0577C4.47893 19.235 6.00626 18.0643 7.24687 16.62C8.48749 15.1756 9.4143 13.4891 9.96849 11.6675C10.1376 12.1748 10.3278 12.6608 10.5391 13.1363C11.0014 14.1472 11.568 15.1069 12.2298 16C13.5108 17.7636 15.23 19.1623 17.2174 20.0577C14.7459 21.1897 12.6938 23.0717 11.3528 25.4363Z" fill="#7DA2AB"/>
<path d="M53.3669 49.6978C50.5773 48.8525 48.4005 46.1579 47.6819 42.6814C47.6362 42.4047 47.4937 42.1533 47.2798 41.9719C47.066 41.7905 46.7947 41.6909 46.5143 41.6909C46.2339 41.6909 45.9625 41.7905 45.7487 41.9719C45.5349 42.1533 45.3924 42.4047 45.3466 42.6814C44.6386 46.1579 42.4618 48.8525 39.6616 49.6978C39.4063 49.7813 39.1845 49.9443 39.0286 50.163C38.8727 50.3816 38.7908 50.6445 38.7951 50.913C38.7903 51.1791 38.8723 51.4396 39.0286 51.655C39.1849 51.8704 39.4071 52.0291 39.6616 52.1071C42.4618 52.963 44.6386 55.6576 45.3466 59.1341C45.3977 59.4095 45.5424 59.6587 45.7561 59.8397C45.9698 60.0207 46.2395 60.1223 46.5196 60.1274C46.7989 60.1239 47.0682 60.0227 47.2806 59.8412C47.4929 59.6597 47.635 59.4095 47.6819 59.1341C48.0182 57.4868 48.7428 55.9436 49.7953 54.6326C50.723 53.4511 51.9809 52.5721 53.4092 52.1071C53.6637 52.0291 53.8859 51.8704 54.0422 51.655C54.1985 51.4396 54.2805 51.1791 54.2757 50.913C54.2772 50.6391 54.1893 50.3722 54.0253 50.1529C53.8612 49.9336 53.6301 49.7738 53.3669 49.6978ZM46.5196 56.5346C45.6236 54.1068 43.8727 52.0892 41.5954 50.8602C43.8765 49.6358 45.6287 47.6166 46.5196 45.1857C47.4078 47.6148 49.1561 49.6338 51.4332 50.8602C49.161 52.0928 47.4146 54.1096 46.5196 56.5346Z" fill="#7DA2AB"/>
<path d="M46.0757 18.8635H29.1686C29.0389 18.8774 28.9077 18.8638 28.7836 18.8237C28.6594 18.7836 28.5451 18.7178 28.4481 18.6306C28.351 18.5434 28.2734 18.4367 28.2203 18.3175C28.1672 18.1984 28.1397 18.0694 28.1397 17.9389C28.1397 17.8085 28.1672 17.6794 28.2203 17.5603C28.2734 17.4411 28.351 17.3345 28.4481 17.2473C28.5451 17.1601 28.6594 17.0942 28.7836 17.0541C28.9077 17.014 29.0389 17.0004 29.1686 17.0143H46.0757C46.3039 17.0387 46.515 17.1467 46.6684 17.3174C46.8218 17.4881 46.9066 17.7094 46.9066 17.9389C46.9066 18.1684 46.8218 18.3898 46.6684 18.5605C46.515 18.7312 46.3039 18.8391 46.0757 18.8635Z" fill="#7DA2AB"/>
<path d="M46.0757 34.3441H19.8908C19.6626 34.3197 19.4516 34.2117 19.2982 34.041C19.1448 33.8703 19.0599 33.649 19.0599 33.4195C19.0599 33.19 19.1448 32.9686 19.2982 32.7979C19.4516 32.6272 19.6626 32.5193 19.8908 32.4949H46.0757C46.3039 32.5193 46.515 32.6272 46.6684 32.7979C46.8218 32.9686 46.9066 33.19 46.9066 33.4195C46.9066 33.649 46.8218 33.8703 46.6684 34.041C46.515 34.2117 46.3039 34.3197 46.0757 34.3441Z" fill="#7DA2AB"/>
<path d="M32.0111 49.7085H19.8908C19.6626 49.684 19.4516 49.5761 19.2982 49.4054C19.1448 49.2347 19.0599 49.0133 19.0599 48.7839C19.0599 48.5544 19.1448 48.333 19.2982 48.1623C19.4516 47.9916 19.6626 47.8837 19.8908 47.8593H32.0111C32.2393 47.8837 32.4504 47.9916 32.6038 48.1623C32.7572 48.333 32.842 48.5544 32.842 48.7839C32.842 49.0133 32.7572 49.2347 32.6038 49.4054C32.4504 49.5761 32.2393 49.684 32.0111 49.7085Z" fill="#7DA2AB"/>
</svg>
