<svg width="75" height="80" viewBox="0 0 75 80" fill="none" xmlns="http://www.w3.org/2000/svg">
<path d="M72.9684 13.5503C56.5385 13.4714 45.1381 9.24063 39.073 0.986193C38.8576 0.688719 38.5765 0.444973 38.2515 0.273921C37.9265 0.102869 37.5664 0.00912592 37.1992 0C36.8301 0.00609047 36.4675 0.0984538 36.1404 0.269692C35.8134 0.440931 35.5309 0.686296 35.3156 0.986193C32.4867 4.72916 28.7163 7.65558 24.3886 9.46746C24.7517 9.81576 25.1519 10.1233 25.5819 10.3846C26.0042 10.6607 26.4577 10.8858 26.9329 11.0552C30.52 9.32051 33.7071 6.85879 36.2919 3.82644V39.8225H6.61736C4.01019 32.1872 2.64828 24.1823 2.58383 16.1144C4.65483 16.1144 6.6568 15.9763 8.57002 15.7988C8.3103 15.5412 8.10559 15.2336 7.96828 14.8946C7.83096 14.5555 7.76392 14.1922 7.7712 13.8264C7.77085 13.631 7.79068 13.436 7.83037 13.2446C5.78567 13.4221 3.64891 13.5141 1.42012 13.5207C1.04257 13.5233 0.681383 13.6751 0.415339 13.943C0.149295 14.2109 -8.97834e-06 14.5731 4.04939e-10 14.9507C4.04946e-10 61.3807 36.2525 79.5464 36.6174 79.7239L37.1795 80L37.7416 79.7239C43.5943 76.5127 48.9166 72.4178 53.5207 67.5838C53.2298 66.9168 52.8335 66.3007 52.3471 65.7594L52.0414 65.4339C47.9125 69.7819 43.2191 73.5565 38.0868 76.6568V41.5779H67.1696C65.3086 46.5453 62.8796 51.2809 59.931 55.6903C60.0975 56.0717 60.3024 56.4352 60.5424 56.7752C60.8261 57.1872 61.1571 57.5645 61.5286 57.8994C68.5503 47.712 74.3491 33.6292 74.3491 15C74.3545 14.6257 74.2129 14.2643 73.9548 13.9932C73.6966 13.7222 73.3425 13.5632 72.9684 13.5503ZM36.3314 76.6667C22.9934 68.545 12.7532 56.1978 7.23866 41.5878H36.3314V76.6667ZM67.7712 39.8619H38.0868V3.86588C44.6844 11.7554 56.0256 15.8481 71.8146 16.1243C71.7453 24.199 70.3801 32.2102 67.7712 39.8521V39.8619Z" fill="#7DA2AB"/>
<path d="M26.9231 12.6333C26.1764 12.4064 25.4658 12.0743 24.8127 11.6471C23.9961 11.1436 23.2611 10.5184 22.6332 9.7931C21.1322 8.06965 20.1117 5.98114 19.6746 3.73787C19.6302 3.45986 19.4882 3.20677 19.274 3.02405C19.0598 2.84134 18.7875 2.74097 18.506 2.74097C18.2244 2.74097 17.9521 2.84134 17.7379 3.02405C17.5237 3.20677 17.3817 3.45986 17.3373 3.73787C16.4399 8.1363 13.6687 11.5485 10.1184 12.6136C9.89325 12.6811 9.69383 12.8152 9.54638 12.9982C9.5169 13.032 9.4905 13.0683 9.46749 13.1067C9.34882 13.271 9.2708 13.4611 9.23984 13.6615C9.20888 13.8618 9.22585 14.0666 9.28937 14.2591C9.35289 14.4516 9.46115 14.6262 9.60525 14.7688C9.74936 14.9113 9.92521 15.0177 10.1184 15.0791C10.4332 15.1725 10.7399 15.2912 11.0355 15.4341C11.1041 15.461 11.1701 15.494 11.2328 15.5327C12.845 16.3622 14.2406 17.5579 15.3075 19.0238C16.3745 20.4898 17.0831 22.1854 17.3768 23.9746C17.4211 24.2526 17.5632 24.5057 17.7774 24.6884C17.9916 24.8711 18.2639 24.9715 18.5454 24.9715C18.8269 24.9715 19.0992 24.8711 19.3134 24.6884C19.5276 24.5057 19.6697 24.2526 19.714 23.9746C20.6115 19.5761 23.3827 16.1738 26.933 15.0988C27.1895 15.0145 27.4128 14.8514 27.5711 14.6327C27.7295 14.414 27.8147 14.1509 27.8147 13.8809C27.8147 13.6109 27.7295 13.3478 27.5711 13.1291C27.4128 12.9104 27.1895 12.7472 26.933 12.6629L26.9231 12.6333ZM18.5306 21.6866C17.679 19.0129 16.0137 16.6718 13.7673 14.9903C13.1502 14.546 12.4893 14.166 11.7949 13.8562C12.7142 13.4573 13.5738 12.9329 14.3491 12.298C16.2901 10.6369 17.7367 8.47383 18.5306 6.04556C19.0645 7.65527 19.8792 9.15774 20.9369 10.4834C21.5147 11.216 22.1768 11.878 22.9093 12.4558C23.6312 13.0225 24.4234 13.4932 25.2663 13.8562C23.6643 14.6264 22.239 15.7197 21.0798 17.0672C19.9207 18.4148 19.0527 19.9875 18.5306 21.6866Z" fill="#7DA2AB"/>
<path d="M63.0868 60.4833C62.3772 60.2713 61.7098 59.9376 61.1144 59.4971C60.9533 59.3806 60.7985 59.2556 60.6509 59.1224C60.1388 58.6813 59.6877 58.1738 59.3097 57.6135C59.1913 57.4458 59.073 57.2683 58.9645 57.0809C58.3923 56.1106 57.9888 55.0502 57.7712 53.9448C57.7274 53.6878 57.5949 53.4543 57.3967 53.2849C57.1984 53.1155 56.9471 53.021 56.6864 53.0178C56.4251 53.0225 56.1734 53.1174 55.9739 53.2863C55.7744 53.4552 55.6394 53.6878 55.5917 53.9448C54.931 57.1894 52.8994 59.7042 50.286 60.503C50.0493 60.5808 49.8431 60.7314 49.697 60.9333C49.5508 61.1352 49.4721 61.378 49.4721 61.6273C49.4721 61.8765 49.5508 62.1194 49.697 62.3213C49.8431 62.5231 50.0493 62.6737 50.286 62.7515C51.5089 63.1368 52.5989 63.8578 53.432 64.8324C54.0152 65.4884 54.4941 66.2302 54.8521 67.0316C55.1846 67.7492 55.4297 68.5041 55.5819 69.2801C55.6246 69.5383 55.7576 69.773 55.9571 69.9423C56.1567 70.1116 56.4099 70.2045 56.6716 70.2045C56.9333 70.2045 57.1865 70.1116 57.3861 69.9423C57.5857 69.773 57.7187 69.5383 57.7614 69.2801C58.072 67.7447 58.7486 66.3069 59.7338 65.0888C60.5923 63.9786 61.7688 63.1564 63.1065 62.7318C63.3433 62.654 63.5495 62.5034 63.6956 62.3015C63.8418 62.0997 63.9204 61.8568 63.9204 61.6076C63.9204 61.3583 63.8418 61.1154 63.6956 60.9136C63.5495 60.7117 63.3433 60.5611 63.1065 60.4833H63.0868ZM56.6963 66.9034C56.5325 66.4821 56.338 66.0734 56.1144 65.6805C55.7094 64.8969 55.202 64.1706 54.6056 63.5208C53.8948 62.735 53.0457 62.0865 52.1006 61.6076C54.2261 60.4605 55.8601 58.5775 56.6963 56.3117C57.0768 57.2978 57.6019 58.2218 58.2545 59.0533C58.783 59.74 59.4035 60.3506 60.0987 60.8679C60.469 61.1512 60.8652 61.3988 61.2821 61.6076C59.1569 62.7521 57.5253 64.6364 56.6963 66.9034Z" fill="#7DA2AB"/>
</svg>
