<svg width="120" height="140" viewBox="0 0 120 140" fill="none" xmlns="http://www.w3.org/2000/svg">
<path d="M80.3561 108.389V127.413C79.3079 128.271 78.2907 129.083 77.2864 129.841V108.389H80.3561Z" fill="#862729"/>
<path d="M67.7261 106.162L68.6994 101.294H89.0954L90.0687 106.162H67.7261Z" fill="#862729"/>
<path d="M87.2236 99.0697H71.1999L72.8083 87.0196L84.0248 74.9787L87.2236 99.0697Z" fill="#7DA2AB"/>
<path d="M82.7481 65.1489L74.4697 74.043L77.7046 49.6494L79.1207 39.1062C79.1298 39.0799 79.1388 39.0614 79.1556 39.0443C79.1814 39.018 79.2253 39.018 79.2601 39.0443C79.2782 39.0628 79.2859 39.0799 79.295 39.1062L82.7481 65.1489Z" fill="#7DA2AB"/>
<path d="M119.197 0.561966V41.5818C119.197 79.3113 103.127 103.993 89.6479 118.058C87.5398 120.261 85.3415 122.372 83.0902 124.36V108.946H91.0614C92.1263 108.946 92.9887 108.06 92.9887 106.974V106.92L92.9732 106.866L91.681 100.241C91.5674 99.2934 90.8122 98.5775 89.8983 98.5156L80.9525 34.4183C80.8234 33.5326 80.076 32.8627 79.2072 32.8627C78.3384 32.8627 77.5897 33.5326 77.4774 34.4104L68.5239 98.5078H68.0333C67.0665 98.5078 66.2351 99.2698 66.1293 100.241L64.8449 106.642L64.8371 106.666V106.696L64.8139 106.92V106.974C64.8139 108.06 65.6749 108.946 66.7334 108.946H74.5536V131.177C68.5316 135.529 63.6585 138.079 61.5131 139.12V0.561966H93.2391V13.0872H85.2601C84.2029 13.0872 83.3406 13.9808 83.3406 15.0745V15.1284L83.3484 15.1824L84.6483 21.7997C84.7619 22.7393 85.5093 23.4632 86.431 23.525L95.3768 87.6158C95.4981 88.5015 96.2456 89.1714 97.1143 89.1714C97.9831 89.1714 98.7318 88.5094 98.8596 87.6237L107.805 23.5264H108.296C109.278 23.5264 110.094 22.7867 110.2 21.7931L111.484 15.3995V15.3693L111.492 15.3456L111.515 15.1297V15.0758C111.515 13.9821 110.654 13.0885 109.596 13.0885H101.768V0.561966H119.197Z" fill="#FDF8ED"/>
<path d="M101.223 0V13.6504H109.595C110.342 13.6504 110.969 14.2822 110.969 15.0758L110.946 15.2837L109.654 21.7075C109.593 22.4235 109.005 22.971 108.293 22.971H107.326L98.3122 87.5461C98.2296 88.162 97.7159 88.6174 97.1104 88.6174C96.514 88.6174 96.0003 88.1633 95.9086 87.5395L86.8944 22.9723H86.5472C85.8372 22.9723 85.255 22.4248 85.1801 21.7088L83.8802 15.0758C83.8802 14.2822 84.4921 13.6504 85.255 13.6504H93.7774V0H60.9632V139.989C62.8298 139.134 68.2399 136.447 75.0996 131.47V108.392H66.7282C65.9731 108.392 65.3535 107.752 65.3535 106.974L65.3767 106.75L66.6611 100.327C66.7295 99.6251 67.3182 99.071 68.0282 99.071H68.9873L78.0157 34.488C78.0919 33.8866 78.6056 33.4167 79.202 33.4167C79.8062 33.4167 80.3199 33.8866 80.4038 34.5025L89.4181 99.0697H89.7731C90.483 99.0697 91.0575 99.6238 91.1337 100.325L92.4336 106.973C92.4336 107.751 91.8217 108.39 91.0588 108.39H82.5364V125.561C84.9839 123.458 87.5076 121.085 90.0312 118.444C103.593 104.301 119.74 79.4732 119.74 41.5817V0H101.223ZM119.197 41.5817C119.197 79.3113 103.127 103.993 89.6478 118.058C87.5398 120.261 85.3415 122.372 83.0902 124.36V108.946H91.0614C92.1263 108.946 92.9886 108.06 92.9886 106.974V106.92L92.9732 106.866L91.681 100.241C91.5674 99.2934 90.8122 98.5775 89.8983 98.5156L80.9525 34.4183C80.8234 33.5326 80.076 32.8627 79.2072 32.8627C78.3384 32.8627 77.5897 33.5326 77.4774 34.4104L68.5239 98.5077H68.0333C67.0665 98.5077 66.2351 99.2698 66.1293 100.241L64.8448 106.642L64.8371 106.666V106.696L64.8139 106.92V106.974C64.8139 108.06 65.6749 108.946 66.7334 108.946H74.5536V131.177C68.5316 135.529 63.6585 138.079 61.5131 139.12V0.561969H93.2391V13.0872H85.2601C84.2029 13.0872 83.3406 13.9808 83.3406 15.0745V15.1284L83.3483 15.1824L84.6483 21.7997C84.7619 22.7393 85.5093 23.4632 86.431 23.525L95.3768 87.6158C95.4981 88.5015 96.2455 89.1714 97.1143 89.1714C97.9831 89.1714 98.7318 88.5094 98.8596 87.6237L107.805 23.5264H108.296C109.278 23.5264 110.094 22.7867 110.2 21.7931L111.484 15.3995V15.3693L111.492 15.3456L111.515 15.1297V15.0758C111.515 13.9821 110.654 13.0885 109.596 13.0885H101.768V0.561969H119.199V41.5817H119.197Z" fill="#ECB845"/>
<path d="M99.0377 0.00257874H95.968V13.6464H99.0377V0.00257874Z" fill="#862729"/>
<path d="M101.84 47.6028L97.1982 82.9318C97.1892 82.9582 97.1801 82.9766 97.1724 82.9937C97.1195 83.0292 97.033 83.0121 97.0239 82.9318L93.527 56.5338L101.84 47.6028Z" fill="#7DA2AB"/>
<path d="M105.136 22.9657L103.553 34.6052L92.2503 46.7526L89.0954 22.9657H105.136Z" fill="#7DA2AB"/>
<path d="M108.597 15.8746L107.625 20.7415H87.2275L86.2554 15.8746H108.597Z" fill="#862729"/>
<path d="M58.779 71.9781V92.4498C56.6813 94.3766 54.4855 96.0361 50.5199 96.0361C46.0522 96.0361 43.8228 93.9304 41.4734 91.7036C39.0259 89.3978 36.2621 86.7801 30.9308 86.7801C25.6098 86.7801 22.8357 89.3978 20.3985 91.7036C18.8908 93.1289 17.4385 94.499 15.417 95.3123C14.7612 95.5689 14.0409 95.7795 13.2315 95.8914C9.56026 89.153 6.32661 81.4223 3.96688 72.6453C4.76464 73.1915 5.63857 73.6811 6.63255 74.0483C6.63255 74.0483 6.63255 74.0483 6.63255 74.0588C7.95441 74.5602 9.49443 74.8827 11.352 74.8827C16.673 74.8827 19.4368 72.265 21.8843 69.9592C24.244 67.7205 26.4618 65.6266 30.9308 65.6266C35.3985 65.6266 37.6279 67.7205 39.9876 69.9592C42.4235 72.265 45.1989 74.8827 50.5199 74.8827C54.2996 74.8853 56.7794 73.5705 58.779 71.9781Z" fill="#7DA2AB"/>
<path d="M58.779 95.3689V115.841C56.6813 117.767 54.4855 119.427 50.5199 119.427C46.0522 119.427 43.8228 117.321 41.4734 115.094C39.0259 112.778 36.2622 110.16 30.9308 110.16C29.019 110.16 27.4351 110.495 26.0797 111.051C25.3478 111.33 24.6817 111.675 24.0698 112.077C20.76 107.999 17.4385 103.3 14.3688 97.9419C15.155 97.7747 15.8649 97.5405 16.5207 97.2509C18.7707 96.2823 20.3882 94.7556 21.8843 93.3408C24.2441 91.1127 26.4618 89.0083 30.9308 89.0083C35.3986 89.0083 37.6279 91.1127 39.9876 93.3408C42.4235 95.6466 45.1989 98.2643 50.5199 98.2643C54.2996 98.2643 56.7794 96.9509 58.779 95.3689Z" fill="#7DA2AB"/>
<path d="M58.779 118.748V140C55.7312 138.597 42.7953 132.136 29.6967 118.448C28.3207 117.011 26.911 115.451 25.5014 113.791C26.1352 113.412 26.8232 113.09 27.5991 112.866C28.5608 112.554 29.6528 112.387 30.9308 112.387C35.3986 112.387 37.6279 114.492 39.9876 116.72C42.4235 119.036 45.1989 121.654 50.5199 121.654C54.2997 121.655 56.7794 120.34 58.779 118.748Z" fill="#7DA2AB"/>
<path d="M0.543456 0.554047V41.5883C0.543456 50.9549 1.55551 60.0912 3.54346 68.7418C4.32961 69.4577 5.18288 70.1829 6.12781 70.737L6.40018 70.8989V70.9147C7.88083 71.724 9.45957 72.1083 11.3572 72.1083C15.5887 72.1083 17.636 70.175 20.0087 67.9403C22.4187 65.6608 25.3878 62.8484 30.9269 62.8484C36.4648 62.8484 39.3138 65.5371 41.8297 67.9021C44.2178 70.1671 46.2652 72.1083 50.5186 72.1083C54.2209 72.1083 56.3057 70.5751 58.2329 68.8273V0.554047H0.543456ZM36.6597 27.7852C35.942 31.1596 33.2596 33.9405 29.9807 34.7025C29.2707 34.8723 28.5375 34.9565 27.8198 34.9565C25.5375 34.9565 23.3766 34.109 21.7294 32.5692C21.5784 32.431 21.5332 32.223 21.6016 32.0296C21.6778 31.8295 21.8585 31.6979 22.0702 31.6979H22.1076C22.3723 31.7216 22.6369 31.7282 22.908 31.7282C23.7393 31.7282 24.5629 31.6361 25.3555 31.4505C29.6928 30.4332 32.9717 26.7205 33.5152 22.2063C33.6055 21.3969 33.6133 20.5809 33.5384 19.7715C33.5229 19.6255 33.5758 19.4859 33.6662 19.378C33.7643 19.278 33.8934 19.2162 34.0367 19.2162C34.1658 19.2162 34.2858 19.2701 34.3839 19.3701C36.4403 21.5759 37.2949 24.7187 36.6597 27.7852Z" fill="#FDF8ED"/>
<path d="M0 0V41.5896C0 51.6419 1.1334 60.7703 3.05294 69.0287V69.0366C3.9217 69.8381 4.82144 70.6159 5.85544 71.224V71.2398C7.29865 72.0952 9.02843 72.6651 11.3559 72.6651C15.821 72.6651 18.0427 70.5541 20.3998 68.3286C22.8331 66.0254 25.6137 63.4064 30.9244 63.4064C36.2583 63.4064 39.0311 66.0254 41.4721 68.3286C43.8216 70.5554 46.0509 72.6651 50.5161 72.6651C54.4829 72.6651 56.6813 71.0015 58.7738 69.0748V0H0ZM58.2317 68.8274C56.3044 70.5764 54.2196 72.1084 50.5174 72.1084C46.2639 72.1084 44.2153 70.1671 41.8284 67.9022C39.3125 65.5372 36.4635 62.8484 30.9257 62.8484C25.3878 62.8484 22.4174 65.6595 20.0074 67.9403C17.6347 70.1737 15.5874 72.1084 11.3559 72.1084C9.45958 72.1084 7.88083 71.7228 6.3989 70.9147V70.8989L6.12653 70.737C5.1816 70.1829 4.32833 69.4578 3.54218 68.7418C1.55551 60.0912 0.542172 50.9549 0.542172 41.5883V0.554072H58.2291V68.8274H58.2317Z" fill="#ECB845"/>
<path d="M36.8185 27.8155C36.0931 31.2505 33.3577 34.0853 30.0182 34.8644C29.2927 35.0342 28.553 35.1185 27.8121 35.1185C25.5001 35.1185 23.3017 34.2551 21.6236 32.6916C21.4196 32.5073 21.3512 32.2217 21.4493 31.9677C21.5474 31.6979 21.7888 31.5282 22.0689 31.5282H22.1218C22.3787 31.5519 22.6434 31.5584 22.908 31.5584C23.7238 31.5584 24.5397 31.4663 25.3181 31.2807C29.587 30.2792 32.8129 26.6205 33.3499 22.184C33.4403 21.3825 33.448 20.5823 33.3732 19.7808C33.3577 19.5886 33.4184 19.4031 33.5474 19.2649C33.6752 19.1267 33.8495 19.049 34.038 19.049C34.2045 19.049 34.3697 19.1188 34.5066 19.2491C36.5991 21.4917 37.4678 24.6964 36.8185 27.8155Z" fill="#862729"/>
</svg>
