<svg width="148" height="129" viewBox="0 0 148 129" fill="none" xmlns="http://www.w3.org/2000/svg">
<g clip-path="url(#clip0_341_298)">
<path d="M111.25 48.0402H77.3801C77.0476 48.0428 76.7297 48.1767 76.4956 48.4127C76.2614 48.6487 76.13 48.9677 76.1301 49.3002V50.3902C76.076 51.5274 75.5862 52.6001 74.7622 53.3858C73.9383 54.1714 72.8436 54.6097 71.7051 54.6097C70.5666 54.6097 69.4718 54.1714 68.6479 53.3858C67.824 52.6001 67.3341 51.5274 67.2801 50.3902V49.3002C67.2774 48.9668 67.1439 48.6478 66.9081 48.4121C66.6724 48.1764 66.3534 48.0428 66.0201 48.0402H32.15C31.9341 48.0633 31.7344 48.1654 31.5892 48.327C31.444 48.4885 31.3637 48.698 31.3637 48.9152C31.3637 49.1323 31.444 49.3418 31.5892 49.5034C31.7344 49.6649 31.9341 49.767 32.15 49.7902H65.5301V50.3902C65.5942 51.9849 66.2729 53.4929 67.4239 54.5985C68.5749 55.7042 70.1091 56.3216 71.7051 56.3216C73.3011 56.3216 74.8352 55.7042 75.9862 54.5985C77.1372 53.4929 77.8159 51.9849 77.8801 50.3902V49.7902H111.25C111.373 49.8033 111.497 49.7905 111.614 49.7525C111.732 49.7145 111.84 49.6522 111.932 49.5697C112.024 49.4872 112.097 49.3862 112.147 49.2735C112.198 49.1607 112.224 49.0386 112.224 48.9152C112.224 48.7917 112.198 48.6696 112.147 48.5568C112.097 48.4441 112.024 48.3431 111.932 48.2606C111.84 48.1781 111.732 48.1158 111.614 48.0778C111.497 48.0399 111.373 48.027 111.25 48.0402Z" fill="#7DA2AB"/>
<path d="M120.95 89.0398H119.12C119.057 87.0403 118.37 85.1105 117.156 83.5202C115.942 81.9299 114.262 80.7586 112.35 80.1698L118.85 52.9198C120.05 47.4498 119.43 42.9998 117.05 40.0398C115.05 37.6098 112.05 36.3198 108.19 36.3198H35.3701C31.3701 36.3198 28.2401 37.6598 26.2601 40.1998C23.9201 43.1998 23.39 47.6098 24.71 52.9498L32.0501 83.8898C31.9038 83.9051 31.7563 83.9051 31.6101 83.8898H29.7201C28.3288 83.8878 26.9898 84.42 25.9795 85.3764C24.9691 86.3328 24.3644 87.6405 24.2901 89.0298H22.46C21.8792 89.0298 21.3222 89.2606 20.9115 89.6713C20.5008 90.082 20.2701 90.639 20.2701 91.2198V125.92C20.2701 126.501 20.5008 127.058 20.9115 127.468C21.3222 127.879 21.8792 128.11 22.46 128.11H120.95C121.529 128.107 122.084 127.875 122.492 127.465C122.901 127.054 123.13 126.499 123.13 125.92V91.2198C123.127 90.6425 122.897 90.0895 122.489 89.6812C122.08 89.273 121.527 89.0425 120.95 89.0398ZM27.2501 52.2998C26.1201 47.7498 26.4801 44.1098 28.3101 41.7798C29.7901 39.8898 32.2301 38.8998 35.3701 38.8998H108.15C111.21 38.8998 113.51 39.8198 114.98 41.6498C116.84 43.9698 117.29 47.6498 116.27 52.3098L109.76 79.7598H94.0601C93.9434 79.7598 93.8314 79.7135 93.7489 79.631C93.6664 79.5484 93.6201 79.4365 93.6201 79.3198C93.6201 72.5198 88.8601 67.7798 82.0501 67.7798H81.8501C80.3225 67.7412 78.8025 68.008 77.3794 68.5645C75.9562 69.1209 74.6585 69.9559 73.5622 71.0205C72.466 72.0851 71.5933 73.3578 70.9954 74.764C70.3974 76.1703 70.0862 77.6818 70.0801 79.2098C70.0859 79.7694 69.9771 80.3242 69.7604 80.8402C69.5437 81.3561 69.2237 81.8222 68.8201 82.2098C68.3928 82.6254 67.8848 82.949 67.3275 83.1606C66.7702 83.3721 66.1755 83.4672 65.5801 83.4398C64.6251 83.4085 63.7202 83.005 63.0588 82.3156C62.3973 81.6261 62.0317 80.7052 62.0401 79.7498C62.0403 78.802 61.8513 77.8638 61.4841 76.99C61.1169 76.1163 60.579 75.3246 59.9019 74.6614C59.2248 73.9983 58.4221 73.477 57.5409 73.1281C56.6596 72.7793 55.7176 72.6099 54.7701 72.6298H54.2001C52.7235 72.6363 51.2836 73.0897 50.0698 73.9305C48.856 74.7712 47.9252 75.9599 47.4 77.3398C47.2674 77.7064 47.0258 78.0236 46.7076 78.2488C46.3894 78.4741 46.0099 78.5966 45.6201 78.5998H42.1601C40.6843 78.6025 39.2247 78.9073 37.8712 79.4955C36.5177 80.0837 35.2989 80.9428 34.2901 82.0198L27.2501 52.2998ZM29.7201 86.5098H31.6101C31.9462 86.5058 32.2811 86.4689 32.6101 86.3998C33.5076 86.2161 34.3336 85.7788 34.9901 85.1398C35.1939 84.9559 35.3781 84.7515 35.5401 84.5298C36.2974 83.4953 37.2878 82.6538 38.431 82.0735C39.5742 81.4933 40.838 81.1905 42.1201 81.1898H45.5801C46.5008 81.1889 47.399 80.9055 48.1537 80.378C48.9083 79.8505 49.4829 79.1042 49.8001 78.2398C50.1392 77.3582 50.7371 76.5998 51.5153 76.0643C52.2935 75.5289 53.2155 75.2415 54.1601 75.2398H54.7301C55.3338 75.2239 55.9346 75.3285 56.4974 75.5476C57.0601 75.7667 57.5735 76.0959 58.0075 76.5159C58.4414 76.9359 58.7872 77.4382 59.0247 77.9935C59.2621 78.5488 59.3863 79.1459 59.3901 79.7498C59.3789 81.3819 60.0066 82.9537 61.139 84.1291C62.2714 85.3045 63.8187 85.9902 65.4501 86.0398C66.398 86.0754 67.3432 85.9163 68.2273 85.5724C69.1113 85.2284 69.9155 84.7068 70.5901 84.0398C71.2416 83.4118 71.7591 82.6582 72.1115 81.8246C72.4638 80.9911 72.6436 80.0948 72.6401 79.1898C72.6502 78.0043 72.8968 76.8327 73.3655 75.7437C73.8342 74.6547 74.5155 73.6702 75.3695 72.8478C76.2235 72.0255 77.2331 71.3818 78.339 70.9546C79.4449 70.5274 80.625 70.3252 81.8101 70.3598H82.0101C86.4701 70.3598 91.0101 73.1298 91.0101 79.2998C91.0125 80.0994 91.3278 80.8662 91.8885 81.4362C92.4492 82.0062 93.2107 82.3341 94.0101 82.3498H109.55C110.295 82.3465 111.035 82.4682 111.74 82.7098C113.084 83.1494 114.261 83.9895 115.114 85.1174C115.966 86.2453 116.454 87.6071 116.51 89.0198H26.8501C26.934 88.3209 27.2736 87.6777 27.8035 87.2142C28.3334 86.7508 29.0161 86.4999 29.7201 86.5098ZM77.9101 92.0498V99.9898C77.9101 101.637 77.2558 103.216 76.0912 104.381C74.9266 105.546 73.3471 106.2 71.7001 106.2C70.0531 106.2 68.4735 105.546 67.3089 104.381C66.1443 103.216 65.4901 101.637 65.4901 99.9898V92.0498C65.4895 91.9089 65.5275 91.7706 65.6001 91.6498H77.8501C77.9053 91.7754 77.9261 91.9135 77.9101 92.0498ZM120.53 125.51H22.8501V91.6498H63.7401C63.7298 91.783 63.7298 91.9167 63.7401 92.0498V99.9898C63.6284 101.102 63.7511 102.226 64.1003 103.288C64.4495 104.35 65.0174 105.327 65.7675 106.156C66.5175 106.985 67.4329 107.647 68.4547 108.101C69.4765 108.555 70.5821 108.789 71.7001 108.789C72.818 108.789 73.9236 108.555 74.9454 108.101C75.9672 107.647 76.8827 106.985 77.6327 106.156C78.3827 105.327 78.9506 104.35 79.2998 103.288C79.649 102.226 79.7717 101.102 79.6601 99.9898V92.0498C79.6703 91.9167 79.6703 91.783 79.6601 91.6498H120.56L120.53 125.51Z" fill="#7DA2AB"/>
<path d="M71.7001 101.47C72.8875 101.47 73.8501 100.1 73.8501 98.4101C73.8501 96.7201 72.8875 95.3501 71.7001 95.3501C70.5126 95.3501 69.5501 96.7201 69.5501 98.4101C69.5501 100.1 70.5126 101.47 71.7001 101.47Z" fill="#7DA2AB"/>
<path d="M131.3 85.3699C131.018 85.3653 130.746 85.2631 130.531 85.0808C130.316 84.8985 130.171 84.6473 130.12 84.3699C129.2 79.9099 126.4 76.4499 122.79 75.3699C122.535 75.2796 122.314 75.1123 122.157 74.8911C122.001 74.6699 121.917 74.4057 121.917 74.1349C121.917 73.864 122.001 73.5998 122.157 73.3787C122.314 73.1575 122.535 72.9902 122.79 72.8999C126.4 71.7899 129.2 68.3399 130.12 63.8999C130.171 63.6225 130.316 63.3713 130.531 63.189C130.746 63.0067 131.018 62.9045 131.3 62.8999C131.583 62.906 131.855 63.0084 132.071 63.1903C132.288 63.3721 132.435 63.6225 132.49 63.8999C133.4 68.3699 136.21 71.8199 139.81 72.8999C140.065 72.9902 140.286 73.1575 140.443 73.3787C140.599 73.5998 140.683 73.864 140.683 74.1349C140.683 74.4057 140.599 74.6699 140.443 74.8911C140.286 75.1123 140.065 75.2796 139.81 75.3699C136.21 76.4699 133.4 79.9299 132.49 84.3699C132.435 84.6473 132.288 84.8976 132.071 85.0795C131.855 85.2614 131.583 85.3638 131.3 85.3699ZM124.48 74.0899C126.105 74.8685 127.55 75.9763 128.724 77.3432C129.899 78.71 130.776 80.306 131.3 82.0299C131.831 80.309 132.71 78.7158 133.883 77.3497C135.057 75.9837 136.499 74.874 138.12 74.0899C136.499 73.3058 135.057 72.1961 133.883 70.83C132.71 69.464 131.831 67.8708 131.3 66.1499C130.776 67.8738 129.899 69.4697 128.724 70.8366C127.55 72.2035 126.105 73.3113 124.48 74.0899Z" fill="#7DA2AB"/>
</g>
<path d="M115.55 17.4602C115.286 17.4551 115.032 17.3585 114.832 17.1871C114.631 17.0157 114.496 16.78 114.45 16.5202C113.77 13.2202 111.71 10.6802 109.07 9.87024C108.83 9.79133 108.621 9.63863 108.473 9.43393C108.325 9.22922 108.245 8.98294 108.245 8.73022C108.245 8.47751 108.325 8.23126 108.473 8.02655C108.621 7.82185 108.83 7.66915 109.07 7.59024C111.71 6.78024 113.77 4.24022 114.45 0.940216C114.493 0.678398 114.628 0.440461 114.831 0.268799C115.033 0.0971371 115.29 0.00292969 115.555 0.00292969C115.82 0.00292969 116.077 0.0971371 116.28 0.268799C116.482 0.440461 116.617 0.678398 116.66 0.940216C117.33 4.24022 119.39 6.78024 122.04 7.59024C122.28 7.66915 122.489 7.82185 122.637 8.02655C122.786 8.23126 122.865 8.47751 122.865 8.73022C122.865 8.98294 122.786 9.22922 122.637 9.43393C122.489 9.63863 122.28 9.79133 122.04 9.87024C119.39 10.6802 117.33 13.2202 116.66 16.5202C116.612 16.7808 116.475 17.0167 116.273 17.188C116.07 17.3593 115.815 17.4555 115.55 17.4602ZM110.9 8.74023C113.05 9.90669 114.703 11.8153 115.55 14.1102C116.397 11.8153 118.05 9.90669 120.2 8.74023C118.05 7.57378 116.397 5.66518 115.55 3.37024C114.701 5.66145 113.048 7.56622 110.9 8.73022V8.74023Z" fill="#7DA2AB"/>
<path d="M6.97003 75.4202C6.71792 75.4148 6.47549 75.3222 6.28403 75.1581C6.09257 74.994 5.96394 74.7685 5.92004 74.5202C5.74904 73.3741 5.27515 72.2943 4.54736 71.3925C3.81957 70.4906 2.86424 69.7994 1.78003 69.3902C1.55285 69.3166 1.35484 69.173 1.21439 68.9798C1.07394 68.7867 0.998291 68.554 0.998291 68.3152C0.998291 68.0764 1.07394 67.8438 1.21439 67.6506C1.35484 67.4575 1.55285 67.3138 1.78003 67.2402C2.86424 66.831 3.81957 66.1398 4.54736 65.238C5.27515 64.3361 5.74904 63.2564 5.92004 62.1102C5.96223 61.8609 6.09131 61.6346 6.28442 61.4715C6.47754 61.3083 6.72221 61.2188 6.97504 61.2188C7.22786 61.2188 7.47253 61.3083 7.66565 61.4715C7.85877 61.6346 7.98784 61.8609 8.03003 62.1102C8.19902 63.2571 8.67215 64.3378 9.40021 65.24C10.1283 66.1421 11.0847 66.8328 12.17 67.2402C12.3975 67.3134 12.5954 67.458 12.7341 67.6526C12.8728 67.8471 12.945 68.0813 12.94 68.3202C12.9445 68.5578 12.8719 68.7905 12.7331 68.9833C12.5943 69.1762 12.3967 69.319 12.17 69.3902C11.0847 69.7976 10.1283 70.4883 9.40021 71.3904C8.67215 72.2926 8.19902 73.3733 8.03003 74.5202C7.9858 74.7702 7.85572 74.9969 7.6622 75.1612C7.46868 75.3255 7.22387 75.4171 6.97003 75.4202ZM3.64005 68.3202C5.11153 69.2002 6.2667 70.5234 6.94003 72.1002C7.62066 70.5249 8.77835 69.2028 10.25 68.3202C8.77764 67.434 7.62005 66.1085 6.94003 64.5302C6.27459 66.1053 5.13063 67.4312 3.67004 68.3202H3.64005Z" fill="#7DA2AB"/>
<defs>
<clipPath id="clip0_341_298">
<rect width="144.69" height="113.12" fill="white" transform="translate(3.00006 15)"/>
</clipPath>
</defs>
</svg>
