<svg width="12" height="15" viewBox="0 0 12 15" fill="none" xmlns="http://www.w3.org/2000/svg">
<path d="M5.97174 14.2015C5.71963 14.1961 5.4772 14.1034 5.28574 13.9393C5.09428 13.7752 4.96565 13.5498 4.92175 13.3015C4.75075 12.1553 4.27686 11.0755 3.54907 10.1737C2.82128 9.27188 1.86595 8.58068 0.781738 8.17148C0.554559 8.09788 0.356544 7.95421 0.216095 7.76108C0.0756459 7.56794 0 7.33527 0 7.09647C0 6.85766 0.0756459 6.62502 0.216095 6.43188C0.356544 6.23875 0.554559 6.09508 0.781738 6.02148C1.86595 5.61228 2.82128 4.92105 3.54907 4.01923C4.27686 3.1174 4.75075 2.03766 4.92175 0.891479C4.96394 0.642196 5.09302 0.415897 5.28613 0.252716C5.47925 0.0895351 5.72392 0 5.97675 0C6.22957 0 6.47424 0.0895351 6.66736 0.252716C6.86047 0.415897 6.98955 0.642196 7.03174 0.891479C7.20073 2.03839 7.67386 3.11908 8.40192 4.02124C9.12997 4.9234 10.0864 5.61409 11.1718 6.02148C11.3993 6.09463 11.5971 6.23923 11.7358 6.43381C11.8745 6.62839 11.9468 6.86255 11.9417 7.10147C11.9462 7.33906 11.8736 7.5717 11.7348 7.76459C11.596 7.95747 11.3985 8.10023 11.1718 8.17148C10.0864 8.57887 9.12997 9.26953 8.40192 10.1717C7.67386 11.0739 7.20073 12.1546 7.03174 13.3015C6.98751 13.5515 6.85743 13.7781 6.66391 13.9424C6.47039 14.1068 6.22558 14.1984 5.97174 14.2015ZM2.64175 7.10147C4.11324 7.98147 5.2684 9.30467 5.94174 10.8815C6.62236 9.30616 7.78006 7.98408 9.25174 7.10147C7.77935 6.21521 6.62176 4.88974 5.94174 3.31146C5.2763 4.88654 4.13234 6.21244 2.67175 7.10147H2.64175Z" fill="#7DA2AB"/>
</svg>
